<?xml version="1.0" standalone="no"?>
<!DOCTYPE svg PUBLIC "-//W3C//DTD SVG 1.1//EN" "http://www.w3.org/Graphics/SVG/1.1/DTD/svg11.dtd" >
<svg xmlns="http://www.w3.org/2000/svg">
<metadata>Generated by IcoMoon</metadata>
<defs>
<font id="icomoon" horiz-adv-x="1024">
<font-face units-per-em="1024" ascent="960" descent="-64" />
<missing-glyph horiz-adv-x="1024" />
<glyph unicode="&#x20;" horiz-adv-x="512" d="" />
<glyph unicode="&#xe900;" glyph-name="plane" d="M817.067 716.8c-19.2 8.533-40.533 6.4-57.6-4.267l-142.933-89.6-296.533 117.333c-12.8 4.267-25.6 6.4-38.4 2.133l-106.667-27.733 302.933-324.267c8.533-8.533 21.333-8.533 29.867-2.133 8.533 8.533 8.533 21.333 2.133 29.867l-256 273.067 36.267 8.533c4.267 2.133 8.533 0 12.8 0l317.867-125.867 162.133 100.267c6.4 4.267 12.8 4.267 19.2 2.133l55.467-21.333-516.267-454.4-181.333 181.333 23.467 14.933c6.4 4.267 12.8 4.267 19.2 2.133l96-38.4 72.533 49.067c10.667 6.4 12.8 19.2 6.4 29.867s-19.2 12.8-29.867 6.4l-55.467-36.267-74.667 29.867c-19.2 8.533-42.667 6.4-59.733-6.4l-66.133-44.8 249.6-247.467 595.2 526.933-119.467 49.067z" />
<glyph unicode="&#xe901;" glyph-name="display" d="M955.733 398.933c-8.533 6.4-177.067 198.4-443.733 198.4s-435.2-192-443.733-198.4l-10.667-14.933 12.8-14.933c6.4-6.4 174.933-198.4 441.6-198.4s435.2 192 443.733 198.4l12.8 14.933-12.8 14.933zM512 213.333c-204.8 0-352 128-396.8 170.667 44.8 42.667 192 170.667 396.8 170.667s352-128 396.8-170.667c-42.667-42.667-189.867-170.667-396.8-170.667zM512 618.667c12.8 0 21.333 8.533 21.333 21.333v85.333c0 12.8-8.533 21.333-21.333 21.333s-21.333-8.533-21.333-21.333v-85.333c0-12.8 8.533-21.333 21.333-21.333zM219.733 582.4c4.267-4.267 10.667-6.4 14.933-6.4s10.667 2.133 14.933 6.4c8.533 8.533 8.533 21.333 0 29.867l-42.667 42.667c-8.533 8.533-21.333 8.533-29.867 0s-8.533-21.333 0-29.867l42.667-42.667zM416 388.267c0-49.067 40.533-91.733 91.733-91.733s91.733 40.533 91.733 91.733-40.533 91.733-91.733 91.733-91.733-40.533-91.733-91.733zM554.667 388.267c0-25.6-21.333-49.067-49.067-49.067s-49.067 21.333-49.067 49.067 21.333 49.067 49.067 49.067 49.067-21.333 49.067-49.067zM789.333 576c6.4 0 10.667 2.133 14.933 6.4l42.667 42.667c8.533 8.533 8.533 21.333 0 29.867s-21.333 8.533-29.867 0l-42.667-42.667c-8.533-8.533-8.533-21.333 0-29.867 4.267-4.267 8.533-6.4 14.933-6.4z" />
<glyph unicode="&#xe902;" glyph-name="home" d="M953.6 398.933l-121.6 134.4-273.067 298.667c-23.467 25.6-70.4 25.6-93.867 0l-273.067-298.667-121.6-134.4c-8.533-8.533-6.4-21.333 2.133-29.867s21.333-6.4 29.867 2.133l89.6 98.133v-426.667h42.667v473.6l262.4 288c8.533 8.533 23.467 8.533 32 0l260.267-288v-473.6h42.667v426.667l91.733-100.267c4.267-4.267 10.667-6.4 14.933-6.4s10.667 2.133 14.933 6.4c8.533 6.4 8.533 21.333 0 29.867zM576 384h-128c-36.267 0-64-27.733-64-64v-277.333h42.667v277.333c0 12.8 8.533 21.333 21.333 21.333h128c12.8 0 21.333-8.533 21.333-21.333v-277.333h42.667v277.333c0 36.267-27.733 64-64 64z" />
<glyph unicode="&#xe903;" glyph-name="download" d="M763.733 576c-4.267 61.867-32 119.467-76.8 164.267-100.267 96-260.267 91.733-356.267-8.533-40.533-42.667-64-98.133-68.267-155.733-98.133-14.933-170.667-100.267-170.667-202.667-2.133-110.933 78.933-202.667 206.933-202.667v42.667c-106.667 0-166.4 72.533-166.4 162.133 0 85.333 66.133 157.867 151.467 162.133h19.2v21.333c0 55.467 19.2 106.667 57.6 145.067 78.933 83.2 213.333 87.467 296.533 6.4 42.667-40.533 64-93.867 64-151.467v-21.333h21.333c85.333-4.267 149.333-74.667 149.333-162.133 0-89.6-59.733-162.133-166.4-162.133v-42.667c128 0 209.067 91.733 209.067 204.8 0 102.4-72.533 187.733-170.667 200.533zM627.2 209.067l-93.867-78.933v275.2h-42.667v-275.2l-93.867 76.8c-8.533 8.533-23.467 6.4-29.867-2.133s-6.4-23.467 2.133-29.867l140.8-117.333 140.8 117.333c8.533 8.533 10.667 21.333 2.133 29.867-4.267 10.667-17.067 10.667-25.6 4.267z" />
<glyph unicode="&#xe904;" glyph-name="uploading" d="M763.733 576c-4.267 61.867-32 119.467-76.8 164.267-100.267 96-260.267 91.733-356.267-8.533-40.533-42.667-64-98.133-68.267-155.733-98.133-14.933-170.667-100.267-170.667-202.667-2.133-110.933 78.933-202.667 206.933-202.667v42.667c-106.667 0-166.4 72.533-166.4 162.133 0 85.333 66.133 157.867 151.467 162.133h19.2v21.333c0 55.467 19.2 106.667 57.6 145.067 78.933 83.2 213.333 87.467 296.533 6.4 42.667-40.533 64-93.867 64-151.467v-21.333h21.333c85.333-4.267 149.333-74.667 149.333-162.133 0-89.6-59.733-162.133-166.4-162.133v-42.667c128 0 209.067 91.733 209.067 204.8 0 102.4-72.533 187.733-170.667 200.533zM512 433.067l-140.8-117.333c-8.533-8.533-10.667-21.333-2.133-29.867s21.333-10.667 29.867-2.133l93.867 76.8v-275.2h42.667v275.2l93.867-76.8c4.267-4.267 8.533-4.267 12.8-4.267 6.4 0 12.8 2.133 17.067 8.533 8.533 8.533 6.4 23.467-2.133 29.867l-145.067 115.2z" />
<glyph unicode="&#xe905;" glyph-name="yy-clud" d="M789.333 552.533c-4.267 70.4-34.133 134.4-85.333 181.333-53.333 51.2-123.733 78.933-198.4 76.8s-142.933-32-194.133-85.333c-44.8-46.933-72.533-108.8-76.8-172.8-108.8-14.933-192-108.8-192-221.867 0-123.733 100.267-224 224-224h490.667c123.733 0 224 100.267 224 224 0 113.067-83.2 206.933-192 221.867zM757.333 149.333h-490.667c-100.267 0-181.333 81.067-181.333 181.333 0 96 74.667 174.933 172.8 181.333h21.333v21.333c0 61.867 23.467 119.467 64 162.133 42.667 44.8 102.4 70.4 164.267 72.533 2.133 0 4.267 0 6.4 0 59.733 0 117.333-23.467 162.133-64 46.933-44.8 72.533-104.533 72.533-170.667v-21.333h21.333c96-4.267 172.8-85.333 172.8-181.333-4.267-100.267-85.333-181.333-185.6-181.333zM774.4 398.933l-49.067-49.067-49.067 49.067c-8.533 8.533-21.333 8.533-29.867 0s-8.533-21.333 0-29.867l57.6-57.6v-98.133h42.667v98.133l57.6 57.6c8.533 8.533 8.533 21.333 0 29.867s-21.333 8.533-29.867 0z" />
<glyph unicode="&#xe906;" glyph-name="add-friends" d="M298.667 512h213.333v256c0 46.933-38.4 85.333-85.333 85.333h-106.667c-46.933 0-85.333-38.4-85.333-85.333v-192c0-36.267 27.733-64 64-64zM277.333 768c0 23.467 19.2 42.667 42.667 42.667h106.667c23.467 0 42.667-19.2 42.667-42.667v-213.333h-170.667c-12.8 0-21.333 8.533-21.333 21.333v192zM554.667 341.333h42.667v64c0 36.267-27.733 64-64 64h-298.667c-36.267 0-64-27.733-64-64v-362.667h170.667v42.667h-128v320c0 12.8 8.533 21.333 21.333 21.333h298.667c12.8 0 21.333-8.533 21.333-21.333v-64zM433.067 377.6l-49.067-49.067-49.067 49.067c-8.533 8.533-21.333 8.533-29.867 0s-8.533-21.333 0-29.867l57.6-57.6v-98.133h42.667v98.133l57.6 57.6c8.533 8.533 8.533 21.333 0 29.867s-21.333 8.533-29.867 0zM853.333 256h-128v128h-42.667v-128h-128v-42.667h128v-128h42.667v128h128z" />
<glyph unicode="&#xe907;" glyph-name="analyze" d="M576 704c-12.8 0-21.333-8.533-21.333-21.333s8.533-21.333 21.333-21.333c153.6 0 277.333-123.733 277.333-277.333s-123.733-277.333-277.333-277.333-277.333 123.733-277.333 277.333c0 12.8-8.533 21.333-21.333 21.333s-21.333-8.533-21.333-21.333c0-177.067 142.933-320 320-320s320 142.933 320 320-142.933 320-320 320zM512 853.333h-21.333c-200.533 0-362.667-162.133-362.667-362.667v-21.333h384v384zM469.333 512h-298.667c10.667 160 138.667 288 298.667 298.667v-298.667z" />
<glyph unicode="&#xe908;" glyph-name="application" d="M405.333 810.667h-192c-36.267 0-64-27.733-64-64v-192c0-36.267 27.733-64 64-64h256v256c0 36.267-27.733 64-64 64zM426.667 533.333h-213.333c-12.8 0-21.333 8.533-21.333 21.333v192c0 12.8 8.533 21.333 21.333 21.333h192c12.8 0 21.333-8.533 21.333-21.333v-213.333zM810.667 810.667h-192c-36.267 0-64-27.733-64-64v-192c0-36.267 27.733-64 64-64h256v256c0 36.267-27.733 64-64 64zM832 533.333h-213.333c-12.8 0-21.333 8.533-21.333 21.333v192c0 12.8 8.533 21.333 21.333 21.333h192c12.8 0 21.333-8.533 21.333-21.333v-213.333zM405.333 405.333h-192c-36.267 0-64-27.733-64-64v-192c0-36.267 27.733-64 64-64h256v256c0 36.267-27.733 64-64 64zM426.667 128h-213.333c-12.8 0-21.333 8.533-21.333 21.333v192c0 12.8 8.533 21.333 21.333 21.333h192c12.8 0 21.333-8.533 21.333-21.333v-213.333zM810.667 405.333h-192c-36.267 0-64-27.733-64-64v-192c0-36.267 27.733-64 64-64h256v256c0 36.267-27.733 64-64 64zM832 128h-213.333c-12.8 0-21.333 8.533-21.333 21.333v192c0 12.8 8.533 21.333 21.333 21.333h192c12.8 0 21.333-8.533 21.333-21.333v-213.333z" />
<glyph unicode="&#xe909;" glyph-name="bad" d="M881.067 810.667h-198.4v-384h-72.533l-85.333-298.667h-98.133v234.667h-283.733l110.933 390.4c2.133 8.533 10.667 14.933 21.333 14.933h288c12.8 0 21.333 8.533 21.333 21.333s-8.533 21.333-21.333 21.333h-288c-27.733 0-53.333-19.2-61.867-46.933l-128-443.733h298.667v-234.667h172.8l85.333 298.667h296.533v362.667c0 36.267-21.333 64-57.6 64zM896 426.667h-170.667v341.333h155.733c12.8 0 14.933-8.533 14.933-21.333v-320zM774.4 725.333h42.667v-42.667h-42.667v42.667z" />
<glyph unicode="&#xe90a;" glyph-name="credit-card" d="M896 789.333h-746.667c-36.267 0-64-27.733-64-64v-533.333c0-36.267 27.733-64 64-64h640v42.667h-640c-12.8 0-21.333 8.533-21.333 21.333v533.333c0 12.8 8.533 21.333 21.333 21.333h746.667c12.8 0 21.333-8.533 21.333-21.333v-597.333h42.667v597.333c0 36.267-27.733 64-64 64zM682.667 490.667c12.8 0 21.333 8.533 21.333 21.333s-8.533 21.333-21.333 21.333h-113.067l85.333 85.333c8.533 8.533 8.533 21.333 0 29.867s-21.333 8.533-29.867 0l-113.067-113.067-113.067 113.067c-8.533 8.533-21.333 8.533-29.867 0s-8.533-21.333 0-29.867l85.333-85.333h-113.067c-12.8 0-21.333-8.533-21.333-21.333s8.533-21.333 21.333-21.333h149.333v-85.333h-98.133c-12.8 0-21.333-8.533-21.333-21.333s8.533-21.333 21.333-21.333h98.133v-128h42.667v128h98.133c12.8 0 21.333 8.533 21.333 21.333s-8.533 21.333-21.333 21.333h-98.133v85.333h149.333z" />
<glyph unicode="&#xe90b;" glyph-name="bill" d="M633.6 868.267l-6.4 6.4h-392.533c-36.267 0-64-27.733-64-64v-789.333h682.667v605.867l-219.733 241.067zM640 800l142.933-160h-123.733c-12.8 0-19.2 8.533-19.2 21.333v138.667zM213.333 64v746.667c0 12.8 8.533 21.333 21.333 21.333h362.667v-170.667c0-36.267 27.733-64 61.867-64h151.467v-533.333h-597.333zM682.667 469.333h-113.067l85.333 85.333c8.533 8.533 8.533 21.333 0 29.867s-21.333 8.533-29.867 0l-113.067-113.067-113.067 113.067c-8.533 8.533-21.333 8.533-29.867 0s-8.533-21.333 0-29.867l85.333-85.333h-113.067c-12.8 0-21.333-8.533-21.333-21.333s8.533-21.333 21.333-21.333h149.333v-85.333h-98.133c-12.8 0-21.333-8.533-21.333-21.333s8.533-21.333 21.333-21.333h98.133v-128h42.667v128h98.133c12.8 0 21.333 8.533 21.333 21.333s-8.533 21.333-21.333 21.333h-98.133v85.333h149.333c12.8 0 21.333 8.533 21.333 21.333s-8.533 21.333-21.333 21.333z" />
<glyph unicode="&#xe90c;" glyph-name="business" d="M789.333 832h-554.667c-36.267 0-64-27.733-64-64v-704h682.667v704c0 36.267-27.733 64-64 64zM236.8 789.333h249.6l-155.733-206.933-93.867 206.933zM512 753.067l153.6-230.4 2.133 2.133-155.733-345.6-162.133 358.4 162.133 215.467zM686.933 565.333l-149.333 224h249.6l-100.267-224zM213.333 738.133l285.867-631.467h-285.867v631.467zM524.8 106.667l285.867 631.467v-631.467h-285.867z" />
<glyph unicode="&#xe90d;" glyph-name="calendar" d="M789.333 725.333h-64v85.333h-42.667v-85.333h-341.333v85.333h-42.667v-85.333h-64c-36.267 0-64-27.733-64-64v-512c0-36.267 27.733-64 64-64h618.667v576c0 36.267-27.733 64-64 64zM810.667 128h-576c-12.8 0-21.333 8.533-21.333 21.333v362.667h597.333v-384zM810.667 554.667h-597.333v106.667c0 12.8 8.533 21.333 21.333 21.333h64v-106.667h42.667v106.667h341.333v-106.667h42.667v106.667h64c12.8 0 21.333-8.533 21.333-21.333v-106.667zM512 213.333h42.667v213.333h-85.333v-42.667h42.667z" />
<glyph unicode="&#xe90e;" glyph-name="card" d="M874.667 768h-725.333c-36.267 0-64-27.733-64-64v-490.667c0-36.267 27.733-64 64-64h789.333v554.667c0 36.267-27.733 64-64 64zM149.333 725.333h725.333c12.8 0 21.333-8.533 21.333-21.333v-128h-768v128c0 12.8 8.533 21.333 21.333 21.333zM149.333 192c-12.8 0-21.333 8.533-21.333 21.333v320h768v-341.333h-746.667zM810.667 362.667h-234.667c-12.8 0-21.333-8.533-21.333-21.333s8.533-21.333 21.333-21.333h234.667c12.8 0 21.333 8.533 21.333 21.333s-8.533 21.333-21.333 21.333z" />
<glyph unicode="&#xe90f;" glyph-name="chat" d="M832 832h-640c-36.267 0-64-27.733-64-64v-448h202.667l181.333-226.133 181.333 226.133h202.667v448c0 36.267-27.733 64-64 64zM853.333 362.667h-181.333l-160-200.533-160 200.533h-181.333v405.333c0 12.8 8.533 21.333 21.333 21.333h640c12.8 0 21.333-8.533 21.333-21.333v-405.333zM704 576c0-23.564-19.103-42.667-42.667-42.667s-42.667 19.103-42.667 42.667c0 23.564 19.103 42.667 42.667 42.667s42.667-19.103 42.667-42.667zM405.333 576c0-23.564-19.103-42.667-42.667-42.667s-42.667 19.103-42.667 42.667c0 23.564 19.103 42.667 42.667 42.667s42.667-19.103 42.667-42.667z" />
<glyph unicode="&#xe910;" glyph-name="check" d="M870.4 605.867l-326.4 238.933c-19.2 12.8-44.8 12.8-66.133 0l-324.267-238.933c-14.933-12.8-25.6-32-25.6-51.2v-512h768v512c0 19.2-10.667 38.4-25.6 51.2zM403.2 362.667h-53.333l-179.2-260.267v430.933l232.533-170.667zM373.333 320h277.333l181.333-234.667h-620.8l162.133 234.667zM672 362.667h-51.2l232.533 170.667v-407.467l-181.333 236.8zM501.333 808.533c6.4 4.267 14.933 4.267 19.2 0l317.867-234.667-290.133-211.2h-70.4l-292.267 213.333 315.733 232.533z" />
<glyph unicode="&#xe911;" glyph-name="clock" d="M802.133 136.533c-8.533 4.267-12.8 10.667-12.8 21.333l-40.533 529.067c-2.133 34.133-29.867 59.733-64 59.733h-345.6c-34.133 0-61.867-25.6-64-59.733l-40.533-529.067c0-8.533-4.267-17.067-12.8-19.2l-78.933-32 14.933-40.533 78.933 32c23.467 10.667 40.533 34.133 40.533 57.6l40.533 529.067c0 10.667 10.667 19.2 21.333 19.2h347.733c10.667 0 21.333-8.533 21.333-19.2l38.4-526.933c0-25.6 14.933-49.067 40.533-59.733l78.933-32 14.933 40.533-78.933 29.867zM512 85.333c-38.4 0-72.533 21.333-91.733 53.333l-36.267-21.333c25.6-46.933 76.8-74.667 130.133-74.667s102.4 27.733 130.133 74.667l-36.267 21.333c-23.467-32-57.6-53.333-96-53.333zM469.333 768c0 23.467 19.2 42.667 42.667 42.667s42.667-19.2 42.667-42.667c0-12.8 8.533-21.333 21.333-21.333s21.333 8.533 21.333 21.333c0 46.933-38.4 85.333-85.333 85.333s-85.333-38.4-85.333-85.333c0-12.8 8.533-21.333 21.333-21.333s21.333 8.533 21.333 21.333z" />
<glyph unicode="&#xe912;" glyph-name="price" d="M512 832c-211.2 0-384-172.8-384-384 0-206.933 164.267-362.667 384-362.667s384 155.733 384 362.667c0 211.2-172.8 384-384 384zM512 128c-194.133 0-341.333 136.533-341.333 320 0 187.733 153.6 341.333 341.333 341.333s341.333-153.6 341.333-341.333c0-183.467-147.2-320-341.333-320zM682.667 512h-113.067l85.333 85.333c8.533 8.533 8.533 21.333 0 29.867s-21.333 8.533-29.867 0l-113.067-113.067-113.067 113.067c-8.533 8.533-21.333 8.533-29.867 0s-8.533-21.333 0-29.867l85.333-85.333h-113.067c-12.8 0-21.333-8.533-21.333-21.333s8.533-21.333 21.333-21.333h149.333v-85.333h-98.133c-12.8 0-21.333-8.533-21.333-21.333s8.533-21.333 21.333-21.333h98.133v-128h42.667v128h98.133c12.8 0 21.333 8.533 21.333 21.333s-8.533 21.333-21.333 21.333h-98.133v85.333h149.333c12.8 0 21.333 8.533 21.333 21.333s-8.533 21.333-21.333 21.333z" />
<glyph unicode="&#xe913;" glyph-name="hide" d="M953.6 635.733c-8.533 8.533-21.333 6.4-29.867-2.133-2.133-2.133-164.267-185.6-411.733-185.6-245.333 0-409.6 183.467-409.6 185.6-8.533 8.533-21.333 10.667-29.867 2.133s-10.667-21.333-2.133-29.867c4.267-4.267 74.667-83.2 194.133-140.8l-85.333-85.333 29.867-29.867 98.133 98.133c59.733-23.467 130.133-40.533 206.933-40.533 91.733 0 172.8 23.467 238.933 53.333v0l64-106.667 36.267 21.333-61.867 104.533c102.4 55.467 162.133 121.6 166.4 128s4.267 19.2-4.267 27.733zM490.667 277.333h42.667v128h-42.667z" />
<glyph unicode="&#xe914;" glyph-name="comment" d="M405.333 810.667h-192c-36.267 0-64-27.733-64-64v-192c0-36.267 27.733-64 64-64h256v256c0 36.267-27.733 64-64 64zM426.667 533.333h-213.333c-12.8 0-21.333 8.533-21.333 21.333v192c0 12.8 8.533 21.333 21.333 21.333h192c12.8 0 21.333-8.533 21.333-21.333v-213.333zM405.333 405.333h-192c-36.267 0-64-27.733-64-64v-192c0-36.267 27.733-64 64-64h256v256c0 36.267-27.733 64-64 64zM426.667 128h-213.333c-12.8 0-21.333 8.533-21.333 21.333v192c0 12.8 8.533 21.333 21.333 21.333h192c12.8 0 21.333-8.533 21.333-21.333v-213.333zM533.333 789.333h341.333v-42.667h-341.333v42.667zM533.333 149.333h234.667v-42.667h-234.667v42.667zM533.333 576h234.667v-42.667h-234.667v42.667zM533.333 362.667h341.333v-42.667h-341.333v42.667z" />
<glyph unicode="&#xe915;" glyph-name="computer" d="M896 768c0 36.267-27.733 64-64 64h-640c-36.267 0-64-27.733-64-64v-469.333c0-36.267 27.733-64 64-64h206.933l-42.667-170.667h311.467l-42.667 170.667h270.933v533.333zM411.733 106.667l32 128h136.533l32-128h-200.533zM853.333 277.333h-661.333c-12.8 0-21.333 8.533-21.333 21.333v42.667h682.667v-64zM853.333 384h-682.667v384c0 12.8 8.533 21.333 21.333 21.333h640c12.8 0 21.333-8.533 21.333-21.333v-384z" />
<glyph unicode="&#xe916;" glyph-name="configuration" d="M277.333 640h-21.333v170.667c0 12.8-8.533 21.333-21.333 21.333s-21.333-8.533-21.333-21.333v-170.667h-21.333c-36.267 0-64-27.733-64-64v-85.333c0-36.267 27.733-64 64-64h21.333v-362.667h42.667v362.667h85.333v149.333c0 36.267-27.733 64-64 64zM298.667 469.333h-106.667c-12.8 0-21.333 8.533-21.333 21.333v85.333c0 12.8 8.533 21.333 21.333 21.333h85.333c12.8 0 21.333-8.533 21.333-21.333v-106.667zM554.667 448h-21.333v362.667c0 12.8-8.533 21.333-21.333 21.333s-21.333-8.533-21.333-21.333v-362.667h-21.333c-36.267 0-64-27.733-64-64v-85.333c0-36.267 27.733-64 64-64h21.333v-170.667h42.667v170.667h85.333v149.333c0 36.267-27.733 64-64 64zM576 277.333h-106.667c-12.8 0-21.333 8.533-21.333 21.333v85.333c0 12.8 8.533 21.333 21.333 21.333h85.333c12.8 0 21.333-8.533 21.333-21.333v-106.667zM896 661.333c0 36.267-27.733 64-64 64h-21.333v85.333c0 12.8-8.533 21.333-21.333 21.333s-21.333-8.533-21.333-21.333v-85.333h-21.333c-36.267 0-64-27.733-64-64v-85.333c0-36.267 27.733-64 64-64h21.333v-448h42.667v448h85.333v149.333zM853.333 554.667h-106.667c-12.8 0-21.333 8.533-21.333 21.333v85.333c0 12.8 8.533 21.333 21.333 21.333h85.333c12.8 0 21.333-8.533 21.333-21.333v-106.667z" />
<glyph unicode="&#xe917;" glyph-name="conserve" d="M881.067 667.733l-125.867 142.933c-12.8 14.933-29.867 21.333-49.067 21.333h-514.133c-36.267 0-64-27.733-64-64v-704h768v561.067c0 17.067-6.4 32-14.933 42.667zM640 789.333v-155.733c0-8.533-10.667-14.933-21.333-14.933h-234.667c-10.667 0-21.333 6.4-21.333 14.933v155.733h277.333zM298.667 106.667v277.333h426.667v-277.333h-426.667zM853.333 106.667h-85.333v320h-512v-320h-85.333v661.333c0 12.8 8.533 21.333 21.333 21.333h128v-155.733c0-32 27.733-57.6 64-57.6h234.667c36.267 0 64 25.6 64 57.6v155.733h25.6c6.4 0 12.8-2.133 17.067-6.4l123.733-142.933c4.267-4.267 4.267-8.533 4.267-14.933v-518.4z" />
<glyph unicode="&#xe918;" glyph-name="delete-friend" d="M298.667 512h213.333v256c0 46.933-38.4 85.333-85.333 85.333h-106.667c-46.933 0-85.333-38.4-85.333-85.333v-192c0-36.267 27.733-64 64-64zM277.333 768c0 23.467 19.2 42.667 42.667 42.667h106.667c23.467 0 42.667-19.2 42.667-42.667v-213.333h-170.667c-12.8 0-21.333 8.533-21.333 21.333v192zM554.667 341.333h42.667v64c0 36.267-27.733 64-64 64h-298.667c-36.267 0-64-27.733-64-64v-362.667h170.667v42.667h-128v320c0 12.8 8.533 21.333 21.333 21.333h298.667c12.8 0 21.333-8.533 21.333-21.333v-64zM433.067 377.6l-49.067-49.067-49.067 49.067c-8.533 8.533-21.333 8.533-29.867 0s-8.533-21.333 0-29.867l57.6-57.6v-98.133h42.667v98.133l57.6 57.6c8.533 8.533 8.533 21.333 0 29.867s-21.333 8.533-29.867 0zM554.667 256h298.667v-42.667h-298.667v42.667z" />
<glyph unicode="&#xe919;" glyph-name="document" d="M853.333 682.667h-396.8l-106.667 106.667h-179.2c-36.267 0-64-27.733-64-64v-554.667c0-36.267 27.733-64 64-64h746.667v512c0 36.267-27.733 64-64 64zM874.667 149.333h-704c-12.8 0-21.333 8.533-21.333 21.333v277.333h725.333v-298.667zM874.667 490.667h-725.333v234.667c0 12.8 8.533 21.333 21.333 21.333h162.133l106.667-106.667h413.867c12.8 0 21.333-8.533 21.333-21.333v-128z" />
<glyph unicode="&#xe91a;" glyph-name="e-mail" d="M832 746.667h-640c-36.267 0-64-27.733-64-64v-469.333c0-36.267 27.733-64 64-64h704v533.333c0 36.267-27.733 64-64 64zM817.067 704l-294.4-226.133c-6.4-4.267-12.8-4.267-19.2 0l-307.2 226.133h620.8zM192 192c-12.8 0-21.333 8.533-21.333 21.333v456.533l307.2-226.133 2.133-2.133c10.667-6.4 21.333-8.533 32-8.533s23.467 2.133 32 8.533l309.333 234.667v-484.267h-661.333z" />
<glyph unicode="&#xe91b;" glyph-name="expense" d="M853.333 277.333h-277.333c0 2.133 0 4.267 0 4.267v10.667c0 23.467-12.8 46.933-36.267 57.6l-194.133 98.133h-281.6c-12.8 0-21.333-8.533-21.333-21.333s8.533-21.333 21.333-21.333h273.067l185.6-91.733c6.4-4.267 12.8-10.667 12.8-19.2v-10.667c0-10.667-6.4-17.067-10.667-19.2-2.133-2.133-10.667-6.4-21.333 0l-194.133 98.133c-10.667 4.267-23.467 0-27.733-8.533-4.267-10.667 0-23.467 8.533-27.733l194.133-98.133c8.533-4.267 19.2-6.4 27.733-6.4 10.667 0 23.467 4.267 34.133 10.667 4.267 2.133 8.533 4.267 8.533 6.4v0h298.667c12.8 0 21.333-8.533 21.333-21.333v-64h-381.867l-211.2 64-153.6-4.267v-42.667h147.2l211.2-64h430.933v106.667c0 36.267-27.733 64-64 64zM917.333 789.333h-533.333c-36.267 0-64-27.733-64-64v-170.667c0-12.8 8.533-21.333 21.333-21.333s21.333 8.533 21.333 21.333v64h576v-234.667h-298.667c-12.8 0-21.333-8.533-21.333-21.333s8.533-21.333 21.333-21.333h341.333v384c0 36.267-27.733 64-64 64zM362.667 661.333v64c0 12.8 8.533 21.333 21.333 21.333h533.333c12.8 0 21.333-8.533 21.333-21.333v-64h-576z" />
<glyph unicode="&#xe91c;" glyph-name="derivation" d="M640 213.333c-12.8 0-21.333-8.533-21.333-21.333v-85.333h-384v661.333c0 12.8 8.533 21.333 21.333 21.333h341.333c12.8 0 21.333-8.533 21.333-21.333v-64c0-12.8 8.533-21.333 21.333-21.333s21.333 8.533 21.333 21.333v64c0 36.267-27.733 64-64 64h-341.333c-36.267 0-64-27.733-64-64v-704h469.333v128c0 12.8-8.533 21.333-21.333 21.333zM718.933 590.933c-8.533 8.533-21.333 8.533-29.867 0s-8.533-21.333 0-29.867l91.733-91.733h-396.8c-12.8 0-21.333-8.533-21.333-21.333s8.533-21.333 21.333-21.333h401.067l-98.133-113.067c-8.533-8.533-6.4-21.333 2.133-29.867 4.267-4.267 8.533-4.267 14.933-4.267s12.8 2.133 17.067 6.4l140.8 164.267-142.933 140.8z" />
<glyph unicode="&#xe91d;" glyph-name="brief-case" d="M832 618.667h-106.667v106.667c0 36.267-27.733 64-64 64h-298.667c-36.267 0-64-27.733-64-64v-106.667h-106.667c-36.267 0-64-27.733-64-64v-384c0-36.267 27.733-64 64-64h704v448c0 36.267-27.733 64-64 64zM341.333 725.333c0 12.8 8.533 21.333 21.333 21.333h298.667c12.8 0 21.333-8.533 21.333-21.333v-106.667h-341.333v106.667zM853.333 149.333h-661.333c-12.8 0-21.333 8.533-21.333 21.333v384c0 12.8 8.533 21.333 21.333 21.333h106.667v-170.667c0-12.8 8.533-21.333 21.333-21.333s21.333 8.533 21.333 21.333v170.667h341.333v-170.667c0-12.8 8.533-21.333 21.333-21.333s21.333 8.533 21.333 21.333v170.667h106.667c12.8 0 21.333-8.533 21.333-21.333v-405.333z" />
<glyph unicode="&#xe91e;" glyph-name="hard-disk" d="M812.8 750.933c-2.133 34.133-29.867 59.733-61.867 59.733h-477.867c-32 0-61.867-25.6-64-57.6l-38.4-454.4v-213.333h682.667v213.333l-40.533 452.267zM251.733 748.8c0 10.667 10.667 19.2 21.333 19.2h475.733c10.667 0 21.333-8.533 21.333-19.2l38.4-428.8h-593.067l36.267 428.8zM810.667 128h-597.333v149.333h597.333v-149.333zM597.333 213.333h128v-42.667h-128v42.667z" />
<glyph unicode="&#xe91f;" glyph-name="information" d="M870.4 725.333h-337.067v85.333c0 12.8-8.533 21.333-21.333 21.333s-21.333-8.533-21.333-21.333v-85.333h-345.6c-12.8 0-21.333-8.533-21.333-21.333s8.533-21.333 21.333-21.333h68.267v-405.333h132.267l-91.733-183.467 38.4-19.2 100.267 200.533h230.4l100.267-200.533 38.4 19.2-89.6 183.467h138.667v405.333h59.733c12.8 0 21.333 8.533 21.333 21.333s-8.533 21.333-21.333 21.333zM768 320h-512v362.667h512v-362.667zM377.6 433.067l70.4 70.4 85.333-85.333 142.933 142.933c8.533 8.533 8.533 21.333 0 29.867s-21.333 8.533-29.867 0l-113.067-113.067-85.333 85.333-100.267-100.267c-8.533-8.533-8.533-21.333 0-29.867s21.333-8.533 29.867 0z" />
<glyph unicode="&#xe920;" glyph-name="instrument-2" d="M512 768c-211.2 0-384-172.8-384-384 0-81.067 25.6-160 74.667-226.133l34.133 25.6c-42.667 59.733-66.133 128-66.133 200.533 0 187.733 153.6 341.333 341.333 341.333s341.333-153.6 341.333-341.333c0-72.533-23.467-140.8-66.133-200.533l34.133-25.6c49.067 66.133 74.667 145.067 74.667 226.133 0 211.2-172.8 384-384 384zM689.067 590.933l-166.4-166.4c-4.267 2.133-6.4 2.133-10.667 2.133-23.467 0-42.667-19.2-42.667-42.667s19.2-42.667 42.667-42.667 42.667 19.2 42.667 42.667c0 4.267 0 6.4-2.133 10.667l166.4 166.4c8.533 8.533 8.533 21.333 0 29.867s-21.333 8.533-29.867 0zM590.933 603.733c10.667-4.267 23.467 2.133 27.733 12.8s-2.133 23.467-12.8 27.733c-27.733 10.667-59.733 14.933-89.6 14.933-57.6 0-113.067-17.067-160-51.2-8.533-6.4-12.8-19.2-4.267-29.867 4.267-6.4 10.667-8.533 17.067-8.533 4.267 0 8.533 2.133 12.8 4.267 38.4 27.733 85.333 42.667 134.4 42.667 23.467 0 49.067-4.267 74.667-12.8zM772.267 477.867c-4.267 10.667-14.933 17.067-25.6 12.8s-17.067-17.067-12.8-27.733c8.533-25.6 12.8-51.2 12.8-78.933 0-12.8 8.533-21.333 21.333-21.333s21.333 8.533 21.333 21.333c0 32-6.4 64-17.067 93.867z" />
<glyph unicode="&#xe921;" glyph-name="instrument-3" d="M512 597.333c-117.333 0-213.333-96-213.333-213.333s96-213.333 213.333-213.333 213.333 96 213.333 213.333-96 213.333-213.333 213.333zM512 213.333c-93.867 0-170.667 76.8-170.667 170.667 0 87.467 66.133 157.867 149.333 168.533v-147.2h42.667v147.2c83.2-10.667 149.333-83.2 149.333-168.533 0-93.867-76.8-170.667-170.667-170.667zM512 661.333c12.8 0 21.333 8.533 21.333 21.333v21.333c0 12.8-8.533 21.333-21.333 21.333s-21.333-8.533-21.333-21.333v-21.333c0-12.8 8.533-21.333 21.333-21.333zM800 448h-21.333c-12.8 0-21.333-8.533-21.333-21.333s8.533-21.333 21.333-21.333h21.333c12.8 0 21.333 8.533 21.333 21.333s-8.533 21.333-21.333 21.333zM245.333 448h-21.333c-12.8 0-21.333-8.533-21.333-21.333s8.533-21.333 21.333-21.333h21.333c12.8 0 21.333 8.533 21.333 21.333s-8.533 21.333-21.333 21.333zM326.4 578.133c4.267 0 6.4 0 10.667 2.133 10.667 6.4 12.8 19.2 8.533 29.867l-10.667 19.2c-6.4 10.667-19.2 12.8-29.867 8.533-10.667-6.4-12.8-19.2-8.533-29.867l10.667-19.2c4.267-8.533 10.667-10.667 19.2-10.667zM721.067 635.733c-10.667 6.4-23.467 2.133-29.867-8.533l-10.667-19.2c-6.4-10.667-2.133-23.467 8.533-29.867 4.267-2.133 6.4-2.133 10.667-2.133 6.4 0 14.933 4.267 19.2 10.667l10.667 19.2c4.267 10.667 0 23.467-8.533 29.867z" />
<glyph unicode="&#xe922;" glyph-name="instrument" d="M512 768c-211.2 0-384-172.8-384-384 0-81.067 25.6-160 74.667-226.133l34.133 25.6c-38.4 53.333-61.867 115.2-66.133 179.2h128c12.8 0 21.333 8.533 21.333 21.333s-8.533 21.333-21.333 21.333h-125.867c4.267 76.8 36.267 147.2 83.2 202.667l49.067-55.467c4.267-4.267 10.667-6.4 17.067-6.4 4.267 0 10.667 2.133 12.8 4.267 8.533 8.533 10.667 21.333 2.133 29.867l-51.2 59.733c55.467 49.067 125.867 81.067 204.8 85.333v-128c0-12.8 8.533-21.333 21.333-21.333s21.333 8.533 21.333 21.333v125.867c72.533-4.267 138.667-32 194.133-74.667l-59.733-70.4c-8.533-8.533-6.4-23.467 2.133-29.867 4.267-4.267 8.533-4.267 12.8-4.267 6.4 0 12.8 2.133 17.067 6.4l57.6 68.267c53.333-57.6 89.6-132.267 93.867-215.467h-125.867c-12.8 0-21.333-8.533-21.333-21.333s8.533-21.333 21.333-21.333h128c-4.267-64-25.6-125.867-64-179.2l34.133-25.6c46.933 68.267 72.533 147.2 72.533 228.267 0 211.2-172.8 384-384 384zM603.733 505.6l-81.067-81.067c-4.267 2.133-6.4 2.133-10.667 2.133-23.467 0-42.667-19.2-42.667-42.667s19.2-42.667 42.667-42.667 42.667 19.2 42.667 42.667c0 4.267 0 6.4-2.133 10.667l81.067 81.067c8.533 8.533 8.533 21.333 0 29.867s-21.333 8.533-29.867 0z" />
<glyph unicode="&#xe923;" glyph-name="integral" d="M512 846.933c-132.267 0-384-23.467-384-113.067v-541.867c0-89.6 251.733-113.067 384-113.067s384 23.467 384 113.067v544c0 89.6-251.733 110.933-384 110.933zM512 804.267c226.133 0 341.333-49.067 341.333-70.4s-115.2-70.4-341.333-70.4-341.333 51.2-341.333 72.533 115.2 68.267 341.333 68.267zM512 121.6c-226.133 0-341.333 49.067-341.333 70.4v232.533c76.8-42.667 243.2-55.467 341.333-55.467s264.533 12.8 341.333 55.467v-232.533c0-21.333-115.2-70.4-341.333-70.4zM512 409.6c-226.133 0-341.333 49.067-341.333 70.4v200.533c76.8-42.667 243.2-55.467 341.333-55.467s264.533 12.8 341.333 55.467v-200.533c0-21.333-115.2-70.4-341.333-70.4z" />
<glyph unicode="&#xe924;" glyph-name="favorite" d="M846.933 531.2c-8.533 27.733-32 44.8-61.867 44.8h-132.267l-83.2 168.533c-10.667 21.333-32 36.267-57.6 36.267s-46.933-12.8-57.6-36.267l-83.2-168.533h-128c-27.733 0-53.333-17.067-61.867-44.8s0-55.467 23.467-72.533l475.733-330.667c10.667-8.533 23.467-12.8 36.267-12.8 14.933 0 27.733 4.267 40.533 14.933 23.467 17.067 29.867 46.933 19.2 74.667l-68.267 172.8 115.2 83.2c23.467 17.067 32 44.8 23.467 70.4zM797.867 494.933l-142.933-102.4 81.067-202.667c6.4-12.8-4.267-21.333-6.4-25.6-2.133-2.133-12.8-8.533-25.6 0l-473.6 330.667c-12.8 8.533-8.533 21.333-8.533 23.467 2.133 4.267 6.4 14.933 21.333 14.933h155.733l96 192c6.4 14.933 29.867 14.933 38.4 0l96-192h160c14.933 0 19.2-10.667 21.333-14.933s0-14.933-12.8-23.467zM311.467 162.133c-12.8-6.4-21.333 0-25.6 2.133-2.133 2.133-10.667 10.667-6.4 23.467l57.6 138.667-38.4 17.067-57.6-138.667c-10.667-25.6-4.267-53.333 17.067-72.533 12.8-10.667 27.733-17.067 42.667-17.067 10.667 0 21.333 2.133 32 8.533l147.2 85.333-21.333 36.267-147.2-83.2z" />
<glyph unicode="&#xe925;" glyph-name="chaining" d="M661.333 874.667c-12.8 0-21.333-8.533-21.333-21.333v-789.333h-128c-70.4 0-128 57.6-128 128v469.333c0 46.933 38.4 85.333 85.333 85.333s85.333-38.4 85.333-85.333v-458.667c0-17.067-14.933-32-32-32s-32 14.933-32 32v394.667c0 12.8-8.533 21.333-21.333 21.333s-21.333-8.533-21.333-21.333v-394.667c0-40.533 34.133-74.667 74.667-74.667s74.667 34.133 74.667 74.667v458.667c0 70.4-57.6 128-128 128s-128-57.6-128-128v-469.333c0-93.867 76.8-170.667 170.667-170.667h170.667v832c0 12.8-8.533 21.333-21.333 21.333z" />
<glyph unicode="&#xe926;" glyph-name="location" d="M748.8 725.333c-44.8 85.333-128 138.667-219.733 145.067-12.8 0-27.733 0-40.533 0-96-6.4-179.2-59.733-224-145.067-46.933-87.467-44.8-192 6.4-277.333l234.667-398.933 234.667 398.933c53.333 85.333 55.467 189.867 8.533 277.333zM706.133 469.333l-198.4-337.067-200.533 337.067c-42.667 72.533-44.8 160-4.267 236.8 38.4 72.533 106.667 117.333 185.6 121.6 6.4 0 12.8 0 17.067 0s12.8 0 17.067 0c78.933-6.4 147.2-49.067 185.6-121.6 42.667-74.667 40.533-164.267-2.133-236.8zM561.067 654.933l-49.067-49.067-49.067 49.067c-8.533 8.533-21.333 8.533-29.867 0s-8.533-21.333 0-29.867l57.6-57.6v-98.133h42.667v98.133l57.6 57.6c8.533 8.533 8.533 21.333 0 29.867s-21.333 8.533-29.867 0z" />
<glyph unicode="&#xe927;" glyph-name="lock" d="M789.333 533.333h-469.333v106.667c0 106.667 85.333 192 192 192s192-85.333 192-192c0-12.8 8.533-21.333 21.333-21.333s21.333 8.533 21.333 21.333c0 130.133-104.533 234.667-234.667 234.667s-234.667-104.533-234.667-234.667v-106.667h-42.667c-36.267 0-64-27.733-64-64v-384c0-36.267 27.733-64 64-64h618.667v448c0 36.267-27.733 64-64 64zM810.667 64h-576c-12.8 0-21.333 8.533-21.333 21.333v384c0 12.8 8.533 21.333 21.333 21.333h554.667c12.8 0 21.333-8.533 21.333-21.333v-405.333zM512 341.333c-23.467 0-42.667-19.2-42.667-42.667v-64h85.333v64c0 23.467-19.2 42.667-42.667 42.667z" />
<glyph unicode="&#xe928;" glyph-name="love" d="M693.333 810.667c-55.467 0-110.933-23.467-149.333-66.133-8.533-8.533-6.4-21.333 2.133-29.867s21.333-6.4 29.867 2.133c29.867 32 72.533 51.2 117.333 51.2 106.667 0 160-53.333 160-160 0-206.933-279.467-411.733-341.333-454.4-61.867 42.667-341.333 247.467-341.333 454.4 0 106.667 53.333 160 160 160 87.467 0 160-72.533 160-160 0-12.8 8.533-21.333 21.333-21.333s21.333 8.533 21.333 21.333c0 110.933-91.733 202.667-202.667 202.667-132.267 0-202.667-70.4-202.667-202.667 0-253.867 356.267-488.533 373.333-497.067l10.667-8.533 10.667 8.533c17.067 8.533 373.333 243.2 373.333 497.067 0 132.267-70.4 202.667-202.667 202.667z" />
<glyph unicode="&#xe929;" glyph-name="message" d="M874.667 746.667h-704v-42.667h689.067l-294.4-226.133c-6.4-4.267-14.933-4.267-19.2 0l-106.667 72.533c-10.667 6.4-23.467 4.267-29.867-6.4s-4.267-23.467 6.4-29.867l106.667-72.533c10.667-6.4 21.333-8.533 32-8.533s23.467 2.133 32 8.533l309.333 234.667v-484.267h-768v-42.667h810.667v533.333c0 36.267-27.733 64-64 64zM106.667 554.667h192v-42.667h-192v42.667zM85.333 362.667h426.667v-42.667h-426.667v42.667z" />
<glyph unicode="&#xe92a;" glyph-name="navigation" d="M512 362.667c-83.2 0-149.333-66.133-149.333-149.333h42.667c0 59.733 46.933 106.667 106.667 106.667s106.667-46.933 106.667-106.667h42.667c0 83.2-66.133 149.333-149.333 149.333zM951.467 394.667l-64 110.933c-17.067 29.867-57.6 40.533-87.467 23.467l-66.133-38.4c-27.733 21.333-59.733 40.533-93.867 53.333v96c0 36.267-27.733 64-64 64h-128c-36.267 0-64-27.733-64-64v-96c-34.133-12.8-66.133-32-93.867-53.333l-64 38.4c-29.867 17.067-70.4 6.4-87.467-23.467l-64-110.933c-8.533-14.933-10.667-32-6.4-49.067s14.933-29.867 29.867-38.4l57.6-27.733c-4.267-23.467-6.4-44.8-6.4-66.133h42.667c0 170.667 142.933 320 320 320s320-149.333 320-320h42.667c0 21.333-2.133 40.533-6.4 61.867l59.733 34.133c14.933 8.533 25.6 21.333 29.867 38.4s2.133 32-6.4 46.933zM166.4 317.867l-49.067 27.733c-4.267 2.133-8.533 6.4-10.667 12.8s0 10.667 2.133 17.067l64 110.933c6.4 10.667 19.2 12.8 29.867 8.533l51.2-29.867c-38.4-42.667-68.267-91.733-87.467-147.2zM426.667 556.8v83.2c0 12.8 8.533 21.333 21.333 21.333h128c12.8 0 21.333-8.533 21.333-21.333v-83.2c-27.733 6.4-55.467 10.667-85.333 10.667s-57.6-4.267-85.333-10.667zM917.333 356.267c-2.133-6.4-4.267-10.667-10.667-12.8l-49.067-29.867c-17.067 55.467-49.067 106.667-89.6 147.2l53.333 29.867c10.667 6.4 23.467 2.133 29.867-8.533l64-110.933c2.133-2.133 2.133-8.533 2.133-14.933z" />
<glyph unicode="&#xe92b;" glyph-name="notification" d="M979.2 522.667c-4.267 21.333-19.2 36.267-38.4 42.667l-192 68.267 21.333 241.067-309.333-238.933c-17.067-12.8-25.6-34.133-23.467-55.467s17.067-38.4 36.267-46.933l149.333-59.733-108.8-433.067 228.267 217.6-29.867 29.867-121.6-117.333 81.067 326.4-181.333 76.8c-8.533 4.267-10.667 10.667-10.667 12.8s0 10.667 6.4 14.933l232.533 179.2-14.933-174.933 224-78.933c8.533-2.133 10.667-8.533 10.667-12.8 0-2.133 2.133-10.667-4.267-14.933l-134.4-128 29.867-29.867 134.4 128c12.8 12.8 19.2 32 14.933 53.333zM149.333 682.667h234.667c12.8 0 21.333 8.533 21.333 21.333s-8.533 21.333-21.333 21.333h-234.667c-12.8 0-21.333-8.533-21.333-21.333s8.533-21.333 21.333-21.333zM384 426.667c0 12.8-8.533 21.333-21.333 21.333h-298.667c-12.8 0-21.333-8.533-21.333-21.333s8.533-21.333 21.333-21.333h298.667c12.8 0 21.333 8.533 21.333 21.333zM448 192h-298.667c-12.8 0-21.333-8.533-21.333-21.333s8.533-21.333 21.333-21.333h298.667c12.8 0 21.333 8.533 21.333 21.333s-8.533 21.333-21.333 21.333z" />
<glyph unicode="&#xe92c;" glyph-name="pad" d="M780.8 917.333h-537.6c-40.533 0-72.533-27.733-72.533-64v-810.667c0-36.267 27.733-64 64-64h618.667v874.667c0 36.267-32 64-72.533 64zM810.667 21.333h-576c-12.8 0-21.333 8.533-21.333 21.333v810.667c0 10.667 12.8 21.333 29.867 21.333h537.6c17.067 0 29.867-10.667 29.867-21.333v-832zM554.667 106.667c0-23.564-19.103-42.667-42.667-42.667s-42.667 19.103-42.667 42.667c0 23.564 19.103 42.667 42.667 42.667s42.667-19.103 42.667-42.667zM597.333 832h-170.667c-12.8 0-21.333-8.533-21.333-21.333s8.533-21.333 21.333-21.333h170.667c12.8 0 21.333 8.533 21.333 21.333s-8.533 21.333-21.333 21.333z" />
<glyph unicode="&#xe92d;" glyph-name="copyreader" d="M362.667 277.333h123.733l398.933 345.6c8.533 8.533 14.933 19.2 14.933 32s-4.267 23.467-10.667 32l-61.867 70.4c-17.067 19.2-44.8 19.2-61.867 4.267l-403.2-345.6v-138.667zM405.333 396.8l386.133 332.8c0 0 2.133 0 2.133 0l61.867-70.4v-4.267l-386.133-334.933h-64v76.8zM874.667 509.867c-12.8 0-21.333-8.533-21.333-21.333v-317.867h-661.333c-12.8 0-21.333 8.533-21.333 21.333v469.333c0 12.8 8.533 21.333 21.333 21.333h320c12.8 0 21.333 8.533 21.333 21.333s-8.533 21.333-21.333 21.333h-320c-36.267 0-64-27.733-64-64v-469.333c0-36.267 27.733-64 64-64h704v360.533c0 10.667-8.533 21.333-21.333 21.333z" />
<glyph unicode="&#xe92e;" glyph-name="expression" d="M832 832h-640c-36.267 0-64-27.733-64-64v-640c0-36.267 27.733-64 64-64h640c36.267 0 64 27.733 64 64v640c0 36.267-27.733 64-64 64zM853.333 128c0-12.8-8.533-21.333-21.333-21.333h-640c-12.8 0-21.333 8.533-21.333 21.333v640c0 12.8 8.533 21.333 21.333 21.333h640c12.8 0 21.333-8.533 21.333-21.333v-640zM416 599.467l4.267-2.133c10.667-2.133 23.467 4.267 25.6 14.933s-4.267 23.467-14.933 25.6l-4.267 2.133c-57.6 14.933-119.467 12.8-174.933-2.133-10.667-2.133-19.2-14.933-14.933-25.6 2.133-10.667 10.667-17.067 21.333-17.067 2.133 0 4.267 0 6.4 0 46.933 14.933 100.267 17.067 151.467 4.267zM593.067 298.667l-4.267-2.133c-51.2-12.8-104.533-12.8-155.733 2.133-10.667 2.133-23.467-4.267-25.6-14.933s4.267-23.467 14.933-25.6c29.867-8.533 59.733-10.667 89.6-10.667 27.733 0 57.6 4.267 85.333 10.667l4.267 2.133c10.667 2.133 19.2 14.933 14.933 25.6s-12.8 14.933-23.467 12.8zM384 469.333c0-23.564-19.103-42.667-42.667-42.667s-42.667 19.103-42.667 42.667c0 23.564 19.103 42.667 42.667 42.667s42.667-19.103 42.667-42.667zM725.333 469.333c0-23.564-19.103-42.667-42.667-42.667s-42.667 19.103-42.667 42.667c0 23.564 19.103 42.667 42.667 42.667s42.667-19.103 42.667-42.667zM772.267 640h-4.267c-57.6 14.933-119.467 12.8-174.933-2.133-10.667-2.133-19.2-14.933-14.933-25.6 2.133-10.667 10.667-17.067 21.333-17.067 2.133 0 4.267 0 6.4 0 51.2 12.8 104.533 12.8 155.733 2.133l4.267-2.133c10.667-2.133 23.467 4.267 25.6 14.933 0 14.933-6.4 25.6-19.2 29.867z" />
<glyph unicode="&#xe92f;" glyph-name="expression-2" d="M832 832h-640c-36.267 0-64-27.733-64-64v-640c0-36.267 27.733-64 64-64h640c36.267 0 64 27.733 64 64v640c0 36.267-27.733 64-64 64zM192 789.333h640c12.8 0 21.333-8.533 21.333-21.333v-537.6l-294.4-61.867-21.333-61.867h-34.133l-21.333 61.867-309.333 44.8c0 0-2.133 0-2.133 0v554.667c0 12.8 8.533 21.333 21.333 21.333zM170.667 128v42.667l281.6-40.533 8.533-23.467h-268.8c-12.8 0-21.333 8.533-21.333 21.333zM832 106.667h-247.467l8.533 23.467 260.267 57.6v-59.733c0-12.8-8.533-21.333-21.333-21.333zM256 597.333h170.667c12.8 0 21.333 8.533 21.333 21.333s-8.533 21.333-21.333 21.333h-170.667c-12.8 0-21.333-8.533-21.333-21.333s8.533-21.333 21.333-21.333zM597.333 597.333h170.667c12.8 0 21.333 8.533 21.333 21.333s-8.533 21.333-21.333 21.333h-170.667c-12.8 0-21.333-8.533-21.333-21.333s8.533-21.333 21.333-21.333zM405.333 281.6c-2.133-10.667 4.267-23.467 14.933-25.6 29.867-8.533 59.733-10.667 89.6-10.667 27.733 0 57.6 4.267 85.333 10.667l4.267 2.133c10.667 2.133 19.2 14.933 14.933 25.6-2.133 10.667-14.933 19.2-25.6 14.933l-4.267-2.133c-51.2-12.8-104.533-12.8-155.733 2.133-8.533 2.133-19.2-4.267-23.467-17.067zM298.667 512h85.333v-85.333h-85.333v85.333zM640 512h85.333v-85.333h-85.333v85.333z" />
<glyph unicode="&#xe930;" glyph-name="personal-details" d="M277.333 512h234.667v256c0 46.933-38.4 85.333-85.333 85.333h-128c-46.933 0-85.333-38.4-85.333-85.333v-192c0-36.267 27.733-64 64-64zM256 768c0 23.467 19.2 42.667 42.667 42.667h128c23.467 0 42.667-19.2 42.667-42.667v-213.333h-192c-12.8 0-21.333 8.533-21.333 21.333v192zM533.333 469.333h-341.333c-36.267 0-64-27.733-64-64v-362.667h42.667v362.667c0 12.8 8.533 21.333 21.333 21.333h341.333c12.8 0 21.333-8.533 21.333-21.333v-362.667h42.667v362.667c0 36.267-27.733 64-64 64zM411.733 377.6l-49.067-49.067-49.067 49.067c-8.533 8.533-21.333 8.533-29.867 0s-8.533-21.333 0-29.867l57.6-57.6v-98.133h42.667v98.133l57.6 57.6c8.533 8.533 8.533 21.333 0 29.867s-21.333 8.533-29.867 0zM597.333 682.667h298.667v-42.667h-298.667v42.667zM725.333 170.667h170.667v-42.667h-170.667v42.667zM682.667 405.333h213.333v-42.667h-213.333v42.667z" />
<glyph unicode="&#xe931;" glyph-name="phone" d="M716.8 917.333h-409.6c-40.533 0-72.533-27.733-72.533-64v-810.667c0-36.267 27.733-64 64-64h490.667v874.667c0 36.267-32 64-72.533 64zM746.667 21.333h-448c-12.8 0-21.333 8.533-21.333 21.333v810.667c0 10.667 12.8 21.333 29.867 21.333h409.6c17.067 0 29.867-10.667 29.867-21.333v-832zM554.667 106.667c0-23.564-19.103-42.667-42.667-42.667s-42.667 19.103-42.667 42.667c0 23.564 19.103 42.667 42.667 42.667s42.667-19.103 42.667-42.667zM597.333 832h-170.667c-12.8 0-21.333-8.533-21.333-21.333s8.533-21.333 21.333-21.333h170.667c12.8 0 21.333 8.533 21.333 21.333s-8.533 21.333-21.333 21.333z" />
<glyph unicode="&#xe932;" glyph-name="picture" d="M832 832h-640c-36.267 0-64-27.733-64-64v-704h768v704c0 36.267-27.733 64-64 64zM853.333 106.667h-682.667v661.333c0 12.8 8.533 21.333 21.333 21.333h640c12.8 0 21.333-8.533 21.333-21.333v-661.333zM682.667 576h42.667c23.467 0 42.667 19.2 42.667 42.667v42.667c0 23.467-19.2 42.667-42.667 42.667h-42.667c-23.467 0-42.667-19.2-42.667-42.667v-42.667c0-23.467 19.2-42.667 42.667-42.667zM452.267 320l-153.6 136.533-100.267-100.267 29.867-29.867 70.4 70.4 125.867-108.8-34.133-38.4 29.867-29.867 177.067 196.267 196.267-236.8 34.133 25.6-230.4 275.2z" />
<glyph unicode="&#xe933;" glyph-name="pin-2" d="M704 768h64c12.8 0 21.333 8.533 21.333 21.333s-8.533 21.333-21.333 21.333h-512c-12.8 0-21.333-8.533-21.333-21.333s8.533-21.333 21.333-21.333h85.333v-405.333h-106.667v-42.667h256v-234.667h42.667v234.667h256v42.667h-85.333v405.333zM384 362.667v405.333h277.333v-405.333h-277.333z" />
<glyph unicode="&#xe934;" glyph-name="pin" d="M795.733 659.2l-106.667 96c-17.067 14.933-40.533 21.333-64 14.933s-40.533-23.467-49.067-44.8l-21.333-66.133-354.133-177.067 170.667-147.2-174.933-194.133 32-27.733 174.933 194.133 177.067-151.467 125.867 354.133 72.533 36.267c21.333 10.667 34.133 29.867 38.4 53.333s-4.267 44.8-21.333 59.733zM774.4 603.733c-2.133-8.533-6.4-17.067-14.933-19.2l-87.467-42.667-110.933-311.467-283.733 243.2 311.467 155.733 27.733 83.2c2.133 8.533 8.533 14.933 17.067 17.067s17.067 0 23.467-6.4l106.667-96c8.533-6.4 12.8-14.933 10.667-23.467z" />
<glyph unicode="&#xe935;" glyph-name="praise" d="M932.267 550.4c-12.8 17.067-29.867 25.6-51.2 25.6h-219.733v170.667c0 36.267-27.733 64-64 64h-53.333c-27.733 0-53.333-19.2-61.867-46.933l-72.533-251.733h-238.933c-36.267 0-64-27.733-64-64v-362.667h256v384h81.067l81.067 283.733c2.133 8.533 10.667 14.933 21.333 14.933h51.2c12.8 0 21.333-8.533 21.333-21.333v-213.333h262.4c6.4 0 12.8-2.133 17.067-8.533s6.4-12.8 4.267-19.2l-108.8-377.6h-366.933v-42.667h401.067l117.333 409.6c4.267 19.2 0 38.4-12.8 55.467zM320 128h-170.667v320c0 12.8 8.533 21.333 21.333 21.333h149.333v-341.333zM234.667 213.333h42.667v-42.667h-42.667v42.667z" />
<glyph unicode="&#xe936;" glyph-name="print-2" d="M450.133 298.667h-322.133v298.667h320c12.8 0 21.333 8.533 21.333 21.333s-8.533 21.333-21.333 21.333h-362.667v-384h364.8c12.8 0 21.333 8.533 21.333 21.333s-10.667 21.333-21.333 21.333zM576 640c-12.8 0-21.333-8.533-21.333-21.333s8.533-21.333 21.333-21.333h320v-298.667h-320c-12.8 0-21.333-8.533-21.333-21.333s8.533-21.333 21.333-21.333h362.667v384h-362.667zM256 448c0-12.8 8.533-21.333 21.333-21.333h448c12.8 0 21.333 8.533 21.333 21.333s-8.533 21.333-21.333 21.333h-448c-12.8 0-21.333-8.533-21.333-21.333z" />
<glyph unicode="&#xe937;" glyph-name="print" d="M853.333 576c0 36.267-27.733 64-64 64h-64v170.667h-426.667v-170.667h-64c-36.267 0-64-27.733-64-64v-298.667h128v-192h426.667v192h128v298.667zM341.333 768h341.333v-128h-341.333v128zM682.667 128h-341.333v256h341.333v-256zM810.667 320h-85.333v106.667h-426.667v-106.667h-85.333v256c0 12.8 8.533 21.333 21.333 21.333h554.667c12.8 0 21.333-8.533 21.333-21.333v-256zM554.667 533.333h170.667v-42.667h-170.667v42.667z" />
<glyph unicode="&#xe938;" glyph-name="record" d="M883.2 665.6l-113.067 128c-23.467 25.6-64 27.733-89.6 6.4l-531.2-469.333v-224h200.533l529.067 467.2c12.8 10.667 21.333 27.733 21.333 44.8s-6.4 34.133-17.067 46.933zM332.8 149.333h-140.8v160l418.133 371.2 140.8-162.133-418.133-369.067zM849.067 605.867l-66.133-57.6-140.8 162.133 64 57.6c8.533 8.533 21.333 6.4 29.867-2.133l113.067-128c4.267-4.267 6.4-10.667 6.4-14.933s-2.133-12.8-6.4-17.067z" />
<glyph unicode="&#xe939;" glyph-name="report" d="M874.667 725.333h-341.333v85.333c0 12.8-8.533 21.333-21.333 21.333s-21.333-8.533-21.333-21.333v-85.333h-341.333c-12.8 0-21.333-8.533-21.333-21.333s8.533-21.333 21.333-21.333h64v-405.333h136.533l-91.733-183.467 38.4-19.2 100.267 200.533h230.4l100.267-200.533 38.4 19.2-91.733 183.467h136.533v405.333h64c12.8 0 21.333 8.533 21.333 21.333s-8.533 21.333-21.333 21.333zM768 320h-512v362.667h512v-362.667z" />
<glyph unicode="&#xe93a;" glyph-name="search" d="M898.133 145.067l-219.733 181.333c32 46.933 51.2 104.533 51.2 166.4 2.133 164.267-132.267 296.533-294.4 296.533-164.267 0-296.533-132.267-296.533-296.533s132.267-296.533 296.533-296.533c85.333 0 164.267 38.4 217.6 96l219.733-179.2 25.6 32zM435.2 238.933c-138.667 0-253.867 115.2-253.867 253.867 0 140.8 113.067 253.867 253.867 253.867s253.867-115.2 253.867-253.867c0-140.8-115.2-253.867-253.867-253.867z" />
<glyph unicode="&#xe93b;" glyph-name="send" d="M896 384v341.333c0 36.267-27.733 64-64 64h-640c-36.267 0-64-27.733-64-64v-448c0-36.267 27.733-64 64-64h618.667l-38.4-51.2c-6.4-8.533-4.267-23.467 4.267-29.867 4.267-2.133 8.533-4.267 12.8-4.267 6.4 0 12.8 2.133 17.067 8.533l74.667 100.267-76.8 76.8c-8.533 8.533-21.333 8.533-29.867 0s-8.533-21.333 0-29.867l27.733-27.733h-610.133c-12.8 0-21.333 8.533-21.333 21.333v435.2l307.2-226.133 2.133-2.133c10.667-6.4 21.333-8.533 32-8.533s23.467 2.133 32 8.533l309.333 234.667v-334.933h42.667zM522.667 520.533c-6.4-4.267-12.8-4.267-19.2 0l-307.2 226.133h620.8l-294.4-226.133z" />
<glyph unicode="&#xe93c;" glyph-name="server" d="M832 320h-21.333v128h-277.333v128h149.333v213.333c0 36.267-27.733 64-64 64h-213.333c-36.267 0-64-27.733-64-64v-149.333c0-36.267 27.733-64 64-64h85.333v-128h-277.333v-128h-21.333c-36.267 0-64-27.733-64-64v-149.333c0-36.267 27.733-64 64-64h234.667v213.333c0 36.267-27.733 64-64 64h-106.667v85.333h512v-85.333h-106.667c-36.267 0-64-27.733-64-64v-149.333c0-36.267 27.733-64 64-64h234.667v213.333c0 36.267-27.733 64-64 64zM405.333 618.667c-12.8 0-21.333 8.533-21.333 21.333v149.333c0 12.8 8.533 21.333 21.333 21.333h213.333c12.8 0 21.333-8.533 21.333-21.333v-170.667h-234.667zM362.667 277.333c12.8 0 21.333-8.533 21.333-21.333v-170.667h-192c-12.8 0-21.333 8.533-21.333 21.333v149.333c0 12.8 8.533 21.333 21.333 21.333h170.667zM853.333 85.333h-192c-12.8 0-21.333 8.533-21.333 21.333v149.333c0 12.8 8.533 21.333 21.333 21.333h170.667c12.8 0 21.333-8.533 21.333-21.333v-170.667z" />
<glyph unicode="&#xe93d;" glyph-name="service" d="M740.267 535.467l-85.333-64-83.2 17.067-17.067 81.067 83.2 83.2v202.667l-251.733-204.8c-17.067-14.933-25.6-36.267-23.467-57.6l17.067-136.533-232.533-200.533c-27.733-23.467-29.867-61.867-8.533-89.6l93.867-113.067 264.533 241.067 136.533-34.133c21.333-6.4 44.8 0 59.733 17.067l25.6 25.6-29.867 29.867-25.6-25.6c-4.267-4.267-12.8-8.533-19.2-6.4l-157.867 40.533-249.6-226.133-66.133 78.933c-8.533 8.533-6.4 23.467 2.133 29.867l253.867 215.467-19.2 157.867c0 6.4 2.133 14.933 8.533 19.2l181.333 149.333v-96l-87.467-87.467 25.6-132.267 130.133-25.6 85.333 64 78.933-12.8-55.467-55.467 29.867-29.867 115.2 115.2-179.2 29.867z" />
<glyph unicode="&#xe93e;" glyph-name="setting" d="M405.333 499.2v-110.933l96-55.467 96 55.467v110.933l-96 55.467-96-55.467zM554.667 413.867l-53.333-29.867-53.333 29.867v61.867l53.333 29.867 53.333-29.867v-61.867zM844.8 362.667l-68.267 40.533c2.133 12.8 4.267 27.733 4.267 40.533s-2.133 27.733-4.267 40.533l64 36.267c29.867 17.067 40.533 57.6 23.467 87.467l-32 55.467c-8.533 14.933-21.333 25.6-38.4 29.867s-34.133 2.133-49.067-6.4l-68.267-36.267c-21.333 17.067-34.133 32-76.8 40.533v55.467c0 36.267-17.067 64-53.333 64h-64c-38.4 0-76.8-27.733-76.8-64v-53.333c-21.333-10.667-44.8-23.467-66.133-40.533l-59.733 36.267c-14.933 8.533-29.867 10.667-46.933 6.4s-29.867-14.933-38.4-29.867l-32-55.467c-17.067-29.867-6.4-70.4 23.467-87.467l64-36.267c-2.133-12.8-4.267-27.733-4.267-40.533s2.133-27.733 4.267-40.533l-70.4-42.667c-29.867-17.067-40.533-57.6-23.467-87.467l32-55.467c17.067-29.867 57.6-40.533 87.467-23.467l64 40.533c21.333-17.067 44.8-32 66.133-40.533v-46.933c0-36.267 38.4-64 74.667-64h64c36.267 0 53.333 27.733 53.333 64v46.933c42.667 10.667 55.467 23.467 76.8 40.533l72.533-40.533c29.867-17.067 70.4-6.4 89.6 23.467l32 55.467c17.067 32 6.4 70.4-23.467 87.467zM832 296.533l-32-55.467c-6.4-10.667-19.2-12.8-29.867-8.533l-96 55.467-10.667-10.667c-23.467-21.333-57.6-38.4-87.467-46.933l-21.333-4.267v-76.8c0-12.8 2.133-21.333-10.667-21.333h-64c-12.8 0-32 8.533-32 21.333v76.8l-8.533 4.267c-29.867 10.667-55.467 25.6-78.933 46.933l-10.667 10.667-96-53.333c-10.667-6.4-23.467-2.133-29.867 8.533l-32 53.333c-2.133 4.267-4.267 10.667-2.133 17.067s4.267 10.667 10.667 12.8l96 55.467-4.267 14.933c-4.267 14.933-4.267 32-4.267 46.933s2.133 32 4.267 46.933l4.267 14.933-89.6 51.2c-4.267 2.133-8.533 6.4-10.667 12.8s0 10.667 2.133 17.067l32 55.467c6.4 10.667 19.2 12.8 29.867 8.533l89.6-51.2 10.667 10.667c23.467 21.333 46.933 38.4 76.8 46.933l8.533 4.267v85.333c0 12.8 19.2 21.333 32 21.333h64c12.8 0 10.667-8.533 10.667-21.333v-83.2l19.2-4.267c29.867-10.667 59.733-25.6 85.333-46.933l12.8-10.667 89.6 51.2c10.667 6.4 23.467 2.133 29.867-8.533l32-55.467c2.133-4.267 4.267-10.667 2.133-17.067s-4.267-10.667-10.667-12.8l-89.6-51.2 4.267-14.933c4.267-14.933 4.267-32 4.267-46.933s-2.133-32-4.267-46.933l-4.267-14.933 96-55.467c4.267-2.133 8.533-6.4 10.667-12.8 4.267-8.533 4.267-12.8 2.133-19.2z" />
<glyph unicode="&#xe93f;" glyph-name="settle-account" d="M232.533 620.8l251.733-140.8 2.133-2.133c8.533-2.133 17.067-4.267 25.6-4.267s17.067 2.133 25.6 4.267l256 140.8c25.6 10.667 40.533 34.133 40.533 61.867s-17.067 49.067-42.667 57.6l-256 125.867-2.133 2.133c-12.8 4.267-27.733 4.267-42.667 0l-256-125.867c-25.6-8.533-42.667-32-42.667-57.6 0-27.733 14.933-51.2 40.533-61.867zM249.6 699.733l256 125.867c4.267 2.133 8.533 2.133 12.8 0l251.733-123.733 2.133-2.133c12.8-4.267 14.933-17.067 14.933-19.2 0-4.267 0-14.933-12.8-21.333l-256-140.8c-4.267-2.133-10.667-2.133-17.067 0l-251.733 138.667-2.133 2.133c-12.8 4.267-12.8 17.067-12.8 21.333s2.133 14.933 14.933 19.2zM181.333 450.133l317.867-168.533h2.133c2.133-2.133 6.4-2.133 8.533-2.133s6.4 0 8.533 2.133l320 168.533c10.667 6.4 14.933 19.2 8.533 29.867s-19.2 14.933-29.867 8.533l-305.067-164.267-309.333 164.267c-10.667 4.267-23.467 2.133-29.867-8.533-4.267-10.667-2.133-23.467 8.533-29.867zM821.333 253.867l-309.333-164.267-309.333 164.267c-10.667 4.267-23.467 2.133-29.867-8.533-4.267-10.667-2.133-23.467 8.533-29.867l317.867-168.533h2.133c2.133-2.133 6.4-2.133 8.533-2.133s6.4 0 8.533 2.133l320 168.533c10.667 6.4 14.933 19.2 8.533 29.867-2.133 10.667-14.933 12.8-25.6 8.533z" />
<glyph unicode="&#xe940;" glyph-name="share" d="M874.667 810.667h-128c-36.267 0-64-27.733-64-64v-51.2l-343.467-189.867c-6.4 27.733-32 49.067-61.867 49.067h-128c-36.267 0-64-27.733-64-64v-128c0-36.267 27.733-64 64-64h128c25.6 0 46.933 14.933 57.6 36.267l305.067-115.2v-49.067c0-36.267 27.733-64 64-64h128c36.267 0 64 27.733 64 64v128c0 36.267-27.733 64-64 64h-128c-36.267 0-64-27.733-64-64v-34.133l-298.667 113.067v78.933l341.333 189.867v-27.733c0-36.267 27.733-64 64-64h128c36.267 0 64 27.733 64 64v128c0 36.267-27.733 64-64 64zM682.667 298.667c0 12.8 8.533 21.333 21.333 21.333h128c12.8 0 21.333-8.533 21.333-21.333v-128c0-12.8-8.533-21.333-21.333-21.333h-128c-12.8 0-21.333 8.533-21.333 21.333v128zM298.667 362.667c0-12.8-8.533-21.333-21.333-21.333h-128c-12.8 0-21.333 8.533-21.333 21.333v128c0 12.8 8.533 21.333 21.333 21.333h128c12.8 0 21.333-8.533 21.333-21.333v-128zM896 618.667c0-12.8-8.533-21.333-21.333-21.333h-128c-12.8 0-21.333 8.533-21.333 21.333v128c0 12.8 8.533 21.333 21.333 21.333h128c12.8 0 21.333-8.533 21.333-21.333v-128z" />
<glyph unicode="&#xe941;" glyph-name="shrink" d="M810.667 810.667h-597.333c-36.267 0-64-27.733-64-64v-597.333c0-36.267 27.733-64 64-64h661.333v661.333c0 36.267-27.733 64-64 64zM832 128h-618.667c-12.8 0-21.333 8.533-21.333 21.333v597.333c0 12.8 8.533 21.333 21.333 21.333h597.333c12.8 0 21.333-8.533 21.333-21.333v-618.667zM473.6 718.933c-10.667 2.133-23.467-6.4-25.6-17.067l-21.333-119.467-115.2 140.8-34.133-27.733 115.2-142.933h-121.6c0 0 0 0 0 0-12.8 0-21.333-8.533-21.333-21.333s8.533-21.333 21.333-21.333h183.467l34.133 181.333c4.267 12.8-2.133 25.6-14.933 27.733zM746.667 384c0 0 0 0 0 0h-183.467l-32-181.333c-2.133-10.667 6.4-23.467 17.067-25.6 2.133 0 2.133 0 4.267 0 10.667 0 19.2 6.4 21.333 17.067l21.333 119.467 117.333-140.8 32 27.733-119.467 140.8h121.6c12.8 0 21.333 8.533 21.333 21.333s-8.533 21.333-21.333 21.333z" />
<glyph unicode="&#xe942;" glyph-name="speediness" d="M787.2 522.667c-4.267 21.333-19.2 36.267-38.4 42.667l-192 68.267 21.333 241.067-309.333-238.933c-17.067-12.8-25.6-34.133-23.467-55.467s17.067-38.4 36.267-46.933l149.333-59.733-108.8-433.067 228.267 217.6-29.867 29.867-121.6-117.333 81.067 326.4-181.333 76.8c-8.533 4.267-10.667 10.667-10.667 12.8s0 10.667 6.4 14.933l232.533 179.2-14.933-174.933 224-78.933c8.533-2.133 10.667-8.533 10.667-12.8 0-2.133 2.133-10.667-4.267-14.933l-134.4-128 29.867-29.867 134.4 128c12.8 12.8 19.2 32 14.933 53.333z" />
<glyph unicode="&#xe943;" glyph-name="staff" d="M405.333 490.667h277.333v298.667c0 46.933-38.4 85.333-85.333 85.333h-170.667c-46.933 0-85.333-38.4-85.333-85.333v-234.667c0-36.267 27.733-64 64-64zM384 789.333c0 23.467 19.2 42.667 42.667 42.667h170.667c23.467 0 42.667-19.2 42.667-42.667v-256h-234.667c-12.8 0-21.333 8.533-21.333 21.333v234.667zM704 426.667h-384c-36.267 0-64-27.733-64-64v-341.333h42.667v341.333c0 12.8 8.533 21.333 21.333 21.333h384c12.8 0 21.333-8.533 21.333-21.333v-341.333h42.667v341.333c0 36.267-27.733 64-64 64zM561.067 313.6l-49.067-49.067-49.067 49.067c-8.533 8.533-21.333 8.533-29.867 0s-8.533-21.333 0-29.867l57.6-57.6v-98.133h42.667v98.133l57.6 57.6c8.533 8.533 8.533 21.333 0 29.867s-21.333 8.533-29.867 0z" />
<glyph unicode="&#xe944;" glyph-name="group" d="M298.667 490.667h234.667v256c0 46.933-38.4 85.333-85.333 85.333h-128c-46.933 0-85.333-38.4-85.333-85.333v-192c0-36.267 27.733-64 64-64zM277.333 746.667c0 23.467 19.2 42.667 42.667 42.667h128c23.467 0 42.667-19.2 42.667-42.667v-213.333h-192c-12.8 0-21.333 8.533-21.333 21.333v192zM554.667 448h-341.333c-36.267 0-64-27.733-64-64v-362.667h42.667v362.667c0 12.8 8.533 21.333 21.333 21.333h341.333c12.8 0 21.333-8.533 21.333-21.333v-362.667h42.667v362.667c0 36.267-27.733 64-64 64zM433.067 356.267l-49.067-49.067-49.067 49.067c-8.533 8.533-21.333 8.533-29.867 0s-8.533-21.333 0-29.867l57.6-57.6v-98.133h42.667v98.133l57.6 57.6c8.533 8.533 8.533 21.333 0 29.867s-21.333 8.533-29.867 0zM789.333 810.667v-213.333c0-12.8 8.533-21.333 21.333-21.333s21.333 8.533 21.333 21.333v213.333c0 36.267-27.733 64-64 64h-149.333c-12.8 0-21.333-8.533-21.333-21.333s8.533-21.333 21.333-21.333h149.333c12.8 0 21.333-8.533 21.333-21.333zM810.667 512h-149.333v-42.667h149.333c12.8 0 21.333-8.533 21.333-21.333v-362.667h42.667v362.667c0 36.267-27.733 64-64 64z" />
<glyph unicode="&#xe945;" glyph-name="toolbox" d="M874.667 832h-725.333c-36.267 0-64-27.733-64-64v-85.333c0-36.267 27.733-64 64-64h42.667v-554.667h640v405.333c0 12.8-8.533 21.333-21.333 21.333s-21.333-8.533-21.333-21.333v-362.667h-554.667v512h640c36.267 0 64 27.733 64 64v85.333c0 36.267-27.733 64-64 64zM896 682.667c0-12.8-8.533-21.333-21.333-21.333h-725.333c-12.8 0-21.333 8.533-21.333 21.333v85.333c0 12.8 8.533 21.333 21.333 21.333h725.333c12.8 0 21.333-8.533 21.333-21.333v-85.333zM725.333 384v149.333h-426.667v-149.333h426.667zM341.333 490.667h341.333v-64h-341.333v64z" />
<glyph unicode="&#xe946;" glyph-name="return" d="M832 531.2c-12.8 0-21.333-8.533-21.333-21.333v-360.533h-576c-12.8 0-21.333 8.533-21.333 21.333v341.333c0 12.8-8.533 21.333-21.333 21.333s-21.333-8.533-21.333-21.333v-341.333c0-36.267 27.733-64 64-64h618.667v403.2c0 10.667-8.533 21.333-21.333 21.333zM334.933 603.733l155.733 138.667v-401.067h42.667v401.067l155.733-138.667c4.267-4.267 8.533-6.4 14.933-6.4s12.8 2.133 14.933 6.4c8.533 8.533 6.4 21.333-2.133 29.867l-204.8 183.467-206.933-183.467c-8.533-8.533-8.533-21.333-2.133-29.867 8.533-8.533 23.467-8.533 32 0z" />
<glyph unicode="&#xe947;" glyph-name="wallet" d="M832 618.667h-106.667v106.667c0 36.267-27.733 64-64 64h-469.333c-36.267 0-64-27.733-64-64v-554.667c0-36.267 27.733-64 64-64h704v448c0 36.267-27.733 64-64 64zM170.667 725.333c0 12.8 8.533 21.333 21.333 21.333h469.333c12.8 0 21.333-8.533 21.333-21.333v-106.667h-512v106.667zM853.333 149.333h-661.333c-12.8 0-21.333 8.533-21.333 21.333v405.333h661.333c12.8 0 21.333-8.533 21.333-21.333v-405.333zM768 320c0-23.564-19.103-42.667-42.667-42.667s-42.667 19.103-42.667 42.667c0 23.564 19.103 42.667 42.667 42.667s42.667-19.103 42.667-42.667z" />
<glyph unicode="&#xe948;" glyph-name="enlargement" d="M810.667 810.667h-597.333c-36.267 0-64-27.733-64-64v-597.333c0-36.267 27.733-64 64-64h661.333v661.333c0 36.267-27.733 64-64 64zM832 128h-618.667c-12.8 0-21.333 8.533-21.333 21.333v597.333c0 12.8 8.533 21.333 21.333 21.333h597.333c12.8 0 21.333-8.533 21.333-21.333v-618.667zM469.333 708.267h-183.467l-34.133-181.333c-2.133-10.667 6.4-23.467 17.067-25.6 2.133 0 2.133 0 4.267 0 10.667 0 19.2 6.4 21.333 17.067l21.333 119.467 115.2-140.8 32 27.733-115.2 138.667 121.6-2.133c0 0 0 0 0 0 12.8 0 21.333 12.8 21.333 23.467 0 12.8-8.533 23.467-21.333 23.467zM750.933 377.6c-10.667 2.133-23.467-6.4-25.6-17.067l-21.333-119.467-117.333 140.8-32-27.733 117.333-140.8h-121.6c-12.8 0-21.333-10.667-21.333-21.333 0-12.8 8.533-21.333 21.333-21.333 0 0 0 0 0 0h183.467l32 181.333c4.267 12.8-4.267 23.467-14.933 25.6z" />
<glyph unicode="&#xe949;" glyph-name="loan" d="M512 554.667c12.8 0 21.333 8.533 21.333 21.333s-8.533 21.333-21.333 21.333h-49.067l42.667 42.667c8.533 8.533 8.533 21.333 0 29.867s-21.333 8.533-29.867 0l-70.4-70.4-70.4 70.4c-8.533 8.533-21.333 8.533-29.867 0s-8.533-21.333 0-29.867l42.667-42.667h-49.067c-12.8 0-21.333-8.533-21.333-21.333s8.533-21.333 21.333-21.333h85.333v-64h-55.467c-12.8 0-21.333-8.533-21.333-21.333s8.533-21.333 21.333-21.333h55.467v-64h42.667v64h55.467c12.8 0 21.333 8.533 21.333 21.333s-8.533 21.333-21.333 21.333h-55.467v64h85.333zM938.667 405.333h-281.6l-194.133-98.133c-21.333-10.667-36.267-32-36.267-57.6v-10.667c0-2.133 0-4.267 0-4.267h-277.333c-36.267 0-64-27.733-64-64v-106.667h428.8l213.333 64h147.2v42.667h-149.333l-215.467-64h-381.867v64c0 12.8 8.533 21.333 21.333 21.333h298.667c2.133-2.133 6.4-4.267 8.533-6.4 10.667-6.4 21.333-10.667 34.133-10.667 10.667 0 19.2 2.133 27.733 6.4l194.133 98.133c10.667 4.267 14.933 17.067 8.533 27.733-4.267 10.667-17.067 14.933-27.733 8.533l-194.133-98.133c-10.667-4.267-17.067 0-21.333 0-2.133 2.133-10.667 6.4-10.667 19.2v10.667c0 8.533 4.267 14.933 12.8 19.2l185.6 91.733h273.067c12.8 0 21.333 8.533 21.333 21.333s-8.533 25.6-21.333 25.6zM226.133 311.467c4.267-2.133 8.533-4.267 12.8-4.267 6.4 0 12.8 2.133 17.067 8.533 6.4 8.533 4.267 23.467-4.267 29.867-64 46.933-102.4 119.467-102.4 198.4 0 134.4 110.933 245.333 245.333 245.333s245.333-110.933 245.333-245.333c0-6.4 0-12.8 0-21.333 0-12.8 8.533-21.333 19.2-23.467 12.8 0 21.333 8.533 23.467 19.2 0 8.533 0 14.933 0 23.467 0 160-130.133 290.133-288 290.133s-288-130.133-288-288c0-91.733 44.8-179.2 119.467-232.533z" />
<glyph unicode="&#xe94a;" glyph-name="add-files" d="M853.333 682.667h-388.267c-6.4 0-10.667 4.267-14.933 8.533l-81.067 81.067c-12.8 10.667-27.733 17.067-44.8 17.067h-153.6c-36.267 0-64-25.6-64-61.867v-554.667c0-34.133 27.733-66.133 64-66.133h746.667v514.133c0 36.267-27.733 61.867-64 61.867zM874.667 149.333h-704c-12.8 0-21.333 12.8-21.333 23.467v554.667c0 12.8 8.533 19.2 21.333 19.2h153.6c6.4 0 10.667 0 14.933-4.267l81.067-83.2c12.8-12.8 27.733-19.2 44.8-19.2h388.267c12.8 0 21.333-6.4 21.333-19.2v-471.467zM618.667 405.333h-85.333v93.867c0 12.8-8.533 21.333-21.333 21.333s-21.333-8.533-21.333-21.333v-93.867h-85.333c-12.8 0-21.333-8.533-21.333-21.333s8.533-21.333 21.333-21.333h85.333v-76.8c0-12.8 8.533-21.333 21.333-21.333s21.333 8.533 21.333 21.333v76.8h85.333c12.8 0 21.333 8.533 21.333 21.333s-8.533 21.333-21.333 21.333z" />
<glyph unicode="&#xe94b;" glyph-name="dustbin" d="M746.667 85.333h-469.333v469.333h-42.667v-512h554.667v512h-42.667zM832 746.667h-192v42.667c0 36.267-27.733 64-64 64h-128c-36.267 0-64-27.733-64-64v-42.667h-192c-36.267 0-64-27.733-64-64v-64c0-12.8 8.533-21.333 21.333-21.333s21.333 8.533 21.333 21.333v64c0 12.8 8.533 21.333 21.333 21.333h640c12.8 0 21.333-8.533 21.333-21.333v-64c0-12.8 8.533-21.333 21.333-21.333s21.333 8.533 21.333 21.333v64c0 36.267-27.733 64-64 64zM426.667 789.333c0 12.8 8.533 21.333 21.333 21.333h128c12.8 0 21.333-8.533 21.333-21.333v-42.667h-170.667v42.667zM448 256v128c0 12.8-8.533 21.333-21.333 21.333s-21.333-8.533-21.333-21.333v-128c0-12.8 8.533-21.333 21.333-21.333s21.333 8.533 21.333 21.333zM618.667 256v128c0 12.8-8.533 21.333-21.333 21.333s-21.333-8.533-21.333-21.333v-128c0-12.8 8.533-21.333 21.333-21.333s21.333 8.533 21.333 21.333z" />
<glyph unicode="&#xe94c;" glyph-name="add" d="M832 490.667h-298.667v298.667c0 12.8-8.533 21.333-21.333 21.333s-21.333-8.533-21.333-21.333v-298.667h-298.667c-12.8 0-21.333-8.533-21.333-21.333s8.533-21.333 21.333-21.333h298.667v-320c0-12.8 8.533-21.333 21.333-21.333s21.333 8.533 21.333 21.333v320h298.667c12.8 0 21.333 8.533 21.333 21.333s-8.533 21.333-21.333 21.333z" />
<glyph unicode="&#xe94d;" glyph-name="add2" d="M618.667 448h-85.333v85.333c0 12.8-8.533 21.333-21.333 21.333s-21.333-8.533-21.333-21.333v-85.333h-85.333c-12.8 0-21.333-8.533-21.333-21.333s8.533-21.333 21.333-21.333h85.333v-85.333c0-12.8 8.533-21.333 21.333-21.333s21.333 8.533 21.333 21.333v85.333h85.333c12.8 0 21.333 8.533 21.333 21.333s-8.533 21.333-21.333 21.333zM612.267 844.8l-6.4 8.533h-349.867c-36.267 0-64-32-64-66.133v-744.533h640v561.067l-219.733 241.067zM618.667 776.533l142.933-157.867h-123.733c-12.8 0-19.2 6.4-19.2 19.2v138.667zM234.667 85.333v701.867c0 10.667 8.533 23.467 21.333 23.467h320v-172.8c0-36.267 27.733-61.867 61.867-61.867h151.467v-490.667h-554.667z" />
<glyph unicode="&#xe94e;" glyph-name="alarm" d="M682.667 441.6c0 91.733-74.667 155.733-166.4 155.733h-12.8c-91.733 0-164.267-64-164.267-155.733v-270.933h341.333v270.933zM640 213.333h-256v228.267c0 68.267 53.333 113.067 121.6 113.067h12.8c68.267 0 123.733-44.8 123.733-113.067v-228.267zM512 725.333c12.8 0 21.333 8.533 21.333 21.333v74.667c0 12.8-8.533 21.333-21.333 21.333s-21.333-8.533-21.333-21.333v-74.667c0-10.667 8.533-21.333 21.333-21.333zM302.933 650.667c4.267-4.267 10.667-6.4 14.933-6.4 6.4 0 10.667 2.133 14.933 6.4 8.533 8.533 8.533 21.333 0 29.867l-51.2 53.333c-8.533 8.533-21.333 8.533-29.867 0s-8.533-21.333 0-29.867l51.2-53.333zM215.467 490.667h-70.4c-12.8 0-21.333-8.533-21.333-21.333s8.533-21.333 21.333-21.333h72.533c12.8 0 21.333 8.533 21.333 21.333s-10.667 21.333-23.467 21.333zM881.067 490.667h-72.533c-12.8 0-21.333-8.533-21.333-21.333s8.533-21.333 21.333-21.333h72.533c12.8 0 21.333 8.533 21.333 21.333s-10.667 21.333-21.333 21.333zM704 644.267c6.4 0 10.667 2.133 14.933 6.4l51.2 53.333c8.533 8.533 8.533 21.333 0 29.867s-21.333 8.533-29.867 0l-51.2-53.333c-8.533-8.533-8.533-21.333 0-29.867 4.267-4.267 10.667-6.4 14.933-6.4zM234.667 106.667h554.667v-42.667h-554.667v42.667z" />
<glyph unicode="&#xe94f;" glyph-name="back" d="M853.333 469.333h-625.067l234.667 234.667c8.533 8.533 8.533 21.333 0 29.867s-21.333 8.533-29.867 0l-285.867-285.867 285.867-285.867c4.267-4.267 10.667-6.4 14.933-6.4s10.667 2.133 14.933 6.4c8.533 8.533 8.533 21.333 0 29.867l-234.667 234.667h625.067v42.667z" />
<glyph unicode="&#xe950;" glyph-name="back2" d="M590.933 633.6c-8.533 8.533-21.333 6.4-29.867-2.133l-170.667-185.6 170.667-185.6c4.267-4.267 10.667-6.4 14.933-6.4s10.667 2.133 14.933 6.4c8.533 8.533 8.533 21.333 2.133 29.867l-145.067 157.867 142.933 155.733c8.533 8.533 8.533 23.467 0 29.867zM512 832c-211.2 0-384-172.8-384-384s172.8-384 384-384 384 172.8 384 384-172.8 384-384 384zM512 106.667c-187.733 0-341.333 153.6-341.333 341.333s153.6 341.333 341.333 341.333 341.333-153.6 341.333-341.333-153.6-341.333-341.333-341.333z" />
<glyph unicode="&#xe951;" glyph-name="back3" d="M418.133 448l236.8 256c8.533 8.533 6.4 21.333-2.133 29.867s-21.333 6.4-29.867-2.133l-262.4-283.733 264.533-285.867c4.267-4.267 10.667-6.4 14.933-6.4s10.667 2.133 14.933 6.4c8.533 8.533 8.533 21.333 2.133 29.867l-238.933 256z" />
<glyph unicode="&#xe952;" glyph-name="blank-page" d="M612.267 844.8l-6.4 8.533h-349.867c-36.267 0-64-32-64-66.133v-744.533h640v561.067l-219.733 241.067zM618.667 776.533l142.933-157.867h-123.733c-12.8 0-19.2 6.4-19.2 19.2v138.667zM234.667 85.333v701.867c0 10.667 8.533 23.467 21.333 23.467h320v-172.8c0-36.267 27.733-61.867 61.867-61.867h151.467v-490.667h-554.667z" />
<glyph unicode="&#xe953;" glyph-name="calculator" d="M448 448h-42.667v42.667c0 12.8-8.533 21.333-21.333 21.333s-21.333-8.533-21.333-21.333v-42.667h-42.667c-12.8 0-21.333-8.533-21.333-21.333s8.533-21.333 21.333-21.333h42.667v-42.667c0-12.8 8.533-21.333 21.333-21.333s21.333 8.533 21.333 21.333v42.667h42.667c12.8 0 21.333 8.533 21.333 21.333s-8.533 21.333-21.333 21.333zM704 448h-85.333c-12.8 0-21.333-8.533-21.333-21.333s8.533-21.333 21.333-21.333h85.333c12.8 0 21.333 8.533 21.333 21.333s-8.533 21.333-21.333 21.333zM704 298.667h-85.333c-12.8 0-21.333-8.533-21.333-21.333s8.533-21.333 21.333-21.333h85.333c12.8 0 21.333 8.533 21.333 21.333s-8.533 21.333-21.333 21.333zM704 192h-85.333c-12.8 0-21.333-8.533-21.333-21.333s8.533-21.333 21.333-21.333h85.333c12.8 0 21.333 8.533 21.333 21.333s-8.533 21.333-21.333 21.333zM441.6 270.933c-8.533 8.533-21.333 8.533-29.867 0l-27.733-27.733-27.733 27.733c-8.533 8.533-21.333 8.533-29.867 0s-8.533-21.333 0-29.867l27.733-27.733-27.733-27.733c-8.533-8.533-8.533-21.333 0-29.867 4.267-4.267 10.667-6.4 14.933-6.4s10.667 2.133 14.933 6.4l27.733 27.733 27.733-27.733c4.267-4.267 10.667-6.4 14.933-6.4s10.667 2.133 14.933 6.4c8.533 8.533 8.533 21.333 0 29.867l-27.733 27.733 27.733 27.733c8.533 8.533 8.533 21.333 0 29.867zM277.333 576h469.333v192h-469.333v-192zM320 725.333h384v-106.667h-384v106.667zM789.333 853.333h-554.667c-34.133 0-64-29.867-64-64v-682.667c0-36.267 29.867-64 64-64h618.667v746.667c0 34.133-29.867 64-64 64zM810.667 85.333h-576c-12.8 0-21.333 10.667-21.333 21.333v682.667c0 12.8 10.667 21.333 21.333 21.333h554.667c12.8 0 21.333-10.667 21.333-21.333v-704z" />
<glyph unicode="&#xe954;" glyph-name="clock-in" d="M740.267 450.133c-10.667 6.4-23.467 4.267-29.867-6.4l-198.4-302.933-206.933 300.8c-44.8 72.533-46.933 162.133-6.4 238.933 38.4 72.533 108.8 119.467 187.733 125.867 6.4 0 12.8 0 19.2 0s12.8 0 19.2 0c27.733-2.133 53.333-8.533 76.8-19.2 10.667-4.267 23.467 0 27.733 10.667s0 23.467-10.667 27.733c-27.733 12.8-59.733 19.2-91.733 21.333-6.4 0-12.8 0-21.333 0-6.4 0-14.933 0-21.333 0-96-6.4-179.2-61.867-224-147.2-46.933-89.6-42.667-194.133 8.533-281.6l245.333-354.133 232.533 356.267c6.4 10.667 2.133 23.467-6.4 29.867zM782.933 740.267c-8.533 8.533-21.333 8.533-29.867 0l-238.933-230.4-78.933 78.933c-8.533 8.533-21.333 8.533-29.867 0s-8.533-21.333 0-29.867l108.8-106.667 268.8 260.267c8.533 6.4 8.533 19.2 0 27.733z" />
<glyph unicode="&#xe955;" glyph-name="cloud" d="M729.6 192c113.067 0 204.8 93.867 204.8 206.933 0 102.4-74.667 189.867-174.933 202.667-4.267 61.867-32 121.6-76.8 164.267-100.267 96-262.4 91.733-358.4-8.533-40.533-42.667-64-96-68.267-155.733-100.267-14.933-174.933-102.4-174.933-204.8 0-113.067 91.733-206.933 204.8-206.933h204.8v-85.333h-277.333v-42.667h597.333v42.667h-277.333v85.333h196.267zM123.733 398.933c0 85.333 68.267 157.867 153.6 162.133l21.333 2.133v21.333c0 55.467 21.333 106.667 57.6 145.067 40.533 42.667 96 64 151.467 64 51.2 0 104.533-19.2 145.067-57.6 42.667-40.533 64-93.867 64-151.467v-21.333h21.333c85.333-4.267 153.6-78.933 153.6-164.267 0-89.6-72.533-164.267-162.133-164.267h-443.733c-89.6 0-162.133 74.667-162.133 164.267z" />
<glyph unicode="&#xe956;" glyph-name="correct" d="M853.333 682.667h-388.267c-6.4 0-10.667 2.133-14.933 6.4l-81.067 81.067c-12.8 12.8-27.733 19.2-44.8 19.2h-153.6c-36.267 0-64-27.733-64-64v-554.667c0-36.267 27.733-64 64-64h746.667v512c0 36.267-27.733 64-64 64zM874.667 149.333h-704c-12.8 0-21.333 8.533-21.333 21.333v554.667c0 12.8 8.533 21.333 21.333 21.333h153.6c6.4 0 10.667-2.133 14.933-6.4l81.067-81.067c12.8-12.8 27.733-19.2 44.8-19.2h388.267c12.8 0 21.333-8.533 21.333-21.333v-469.333zM622.933 494.933l-132.267-155.733-93.867 61.867c-10.667 6.4-23.467 4.267-29.867-6.4s-4.267-23.467 6.4-29.867l125.867-81.067 157.867 185.6c8.533 8.533 6.4 23.467-2.133 29.867-10.667 6.4-23.467 4.267-32-4.267z" />
<glyph unicode="&#xe957;" glyph-name="delete-files" d="M618.667 426.667h-213.333c-12.8 0-21.333-8.533-21.333-21.333s8.533-21.333 21.333-21.333h213.333c12.8 0 21.333 8.533 21.333 21.333s-8.533 21.333-21.333 21.333zM859.733 682.667h-388.267c-6.4 0-10.667 4.267-14.933 8.533l-81.067 81.067c-12.8 10.667-29.867 17.067-46.933 17.067h-151.467c-36.267 0-70.4-25.6-70.4-61.867v-554.667c0-34.133 34.133-66.133 70.4-66.133h740.267v514.133c0 36.267-23.467 61.867-57.6 61.867zM874.667 149.333h-697.6c-12.8 0-27.733 12.8-27.733 23.467v554.667c0 12.8 14.933 19.2 27.733 19.2h153.6c6.4 0 10.667 0 14.933-4.267l81.067-83.2c12.8-12.8 27.733-19.2 44.8-19.2h388.267c12.8 0 17.067-6.4 17.067-19.2v-471.467z" />
<glyph unicode="&#xe958;" glyph-name="delete" d="M612.267 844.8l-6.4 8.533h-349.867c-36.267 0-64-32-64-66.133v-744.533h640v561.067l-219.733 241.067zM618.667 776.533l142.933-157.867h-123.733c-12.8 0-19.2 6.4-19.2 19.2v138.667zM234.667 85.333v701.867c0 10.667 8.533 23.467 21.333 23.467h320v-172.8c0-36.267 27.733-61.867 61.867-61.867h151.467v-490.667h-554.667zM618.667 448h-213.333c-12.8 0-21.333-8.533-21.333-21.333s8.533-21.333 21.333-21.333h213.333c12.8 0 21.333 8.533 21.333 21.333s-8.533 21.333-21.333 21.333z" />
<glyph unicode="&#xe959;" glyph-name="download2" d="M729.6 791.467c-10.667 2.133-23.467-6.4-25.6-17.067s6.4-23.467 17.067-25.6c108.8-21.333 130.133-46.933 130.133-53.333v-264.533c-4.267-21.333-128-64-341.333-64s-337.067 42.667-341.333 64v264.533c0 8.533 34.133 36.267 134.4 55.467 10.667 2.133 19.2 12.8 17.067 25.6 0 8.533-10.667 17.067-21.333 14.933-76.8-14.933-170.667-42.667-170.667-96v-556.8c0-78.933 198.4-115.2 384-115.2s384 36.267 384 115.2v556.8c0 53.333-89.6 81.067-166.4 96zM512 66.133c-226.133 0-341.333 49.067-341.333 72.533v236.8c74.667-40.533 234.667-53.333 341.333-53.333s266.667 12.8 341.333 53.333v-238.933c0-19.2-115.2-70.4-341.333-70.4zM512 533.333l142.933 142.933c8.533 8.533 8.533 21.333 0 29.867s-21.333 8.533-29.867 0l-91.733-89.6v260.267c0 12.8-8.533 21.333-21.333 21.333s-21.333-8.533-21.333-21.333v-260.267l-91.733 91.733c-8.533 8.533-21.333 8.533-29.867 0s-8.533-21.333 0-29.867l142.933-145.067z" />
<glyph unicode="&#xe95a;" glyph-name="error" d="M612.267 844.8l-6.4 8.533h-349.867c-36.267 0-64-32-64-66.133v-744.533h640v561.067l-219.733 241.067zM618.667 776.533l142.933-157.867h-123.733c-12.8 0-19.2 6.4-19.2 19.2v138.667zM234.667 85.333v701.867c0 10.667 8.533 23.467 21.333 23.467h320v-172.8c0-36.267 27.733-61.867 61.867-61.867h151.467v-490.667h-554.667zM541.867 405.333l59.733 59.733c8.533 8.533 8.533 21.333 0 29.867s-21.333 8.533-29.867 0l-59.733-59.733-61.867 59.733c-8.533 8.533-21.333 8.533-29.867 0s-8.533-21.333 0-29.867l61.867-59.733-59.733-59.733c-8.533-8.533-8.533-21.333 0-29.867 4.267-4.267 8.533-6.4 14.933-6.4s10.667 2.133 14.933 6.4l59.733 59.733 61.867-59.733c4.267-4.267 8.533-6.4 14.933-6.4s10.667 2.133 14.933 6.4c8.533 8.533 8.533 21.333 0 29.867l-61.867 59.733z" />
<glyph unicode="&#xe95b;" glyph-name="error2" d="M853.333 682.667h-388.267c-6.4 0-10.667 2.133-14.933 6.4l-81.067 81.067c-12.8 12.8-27.733 19.2-44.8 19.2h-153.6c-36.267 0-64-27.733-64-64v-554.667c0-36.267 27.733-64 64-64h746.667v512c0 36.267-27.733 64-64 64zM874.667 149.333h-704c-12.8 0-21.333 8.533-21.333 21.333v554.667c0 12.8 8.533 21.333 21.333 21.333h153.6c6.4 0 10.667-2.133 14.933-6.4l81.067-81.067c12.8-12.8 27.733-19.2 44.8-19.2h388.267c12.8 0 21.333-8.533 21.333-21.333v-469.333zM612.267 482.133c-8.533 8.533-21.333 8.533-29.867 0l-70.4-70.4-70.4 70.4c-8.533 8.533-21.333 8.533-29.867 0s-8.533-21.333 0-29.867l70.4-70.4-70.4-70.4c-8.533-8.533-8.533-21.333 0-29.867 4.267-4.267 10.667-6.4 14.933-6.4s10.667 2.133 14.933 6.4l70.4 70.4 70.4-70.4c4.267-4.267 10.667-6.4 14.933-6.4s10.667 2.133 14.933 6.4c8.533 8.533 8.533 21.333 0 29.867l-70.4 70.4 70.4 70.4c8.533 8.533 8.533 21.333 0 29.867z" />
<glyph unicode="&#xe95c;" glyph-name="forward" d="M569.6 733.867c-8.533 8.533-21.333 8.533-29.867 0s-8.533-21.333 0-29.867l234.667-234.667h-625.067v-42.667h625.067l-234.667-234.667c-8.533-8.533-8.533-21.333 0-29.867 4.267-4.267 10.667-6.4 14.933-6.4s10.667 2.133 14.933 6.4l285.867 285.867-285.867 285.867z" />
<glyph unicode="&#xe95d;" glyph-name="forward2" d="M384 733.867c-8.533 8.533-21.333 8.533-29.867 2.133s-8.533-21.333-2.133-29.867l236.8-256-236.8-258.133c-8.533-8.533-6.4-21.333 2.133-29.867 4.267-4.267 8.533-6.4 14.933-6.4s10.667 2.133 14.933 6.4l264.533 285.867-264.533 285.867z" />
<glyph unicode="&#xe95e;" glyph-name="Internet" d="M509.867 814.933c-200.533 0-362.667-162.133-362.667-362.667s162.133-362.667 362.667-362.667 362.667 162.133 362.667 362.667-162.133 362.667-362.667 362.667zM490.667 300.8c-34.133 0-70.4-4.267-104.533-8.533-12.8 40.533-21.333 87.467-23.467 136.533h128v-128zM490.667 258.133v-102.4c-34.133 10.667-66.133 44.8-89.6 96 29.867 2.133 59.733 4.267 89.6 6.4zM533.333 153.6v102.4c29.867 0 57.6-4.267 87.467-8.533-23.467-46.933-53.333-83.2-87.467-93.867zM533.333 300.8v125.867h125.867c-2.133-49.067-10.667-96-23.467-136.533-34.133 6.4-68.267 8.533-102.4 10.667zM533.333 469.333v125.867c34.133 0 70.4 4.267 104.533 8.533 12.8-40.533 21.333-87.467 23.467-136.533h-128zM533.333 637.867v104.533c34.133-10.667 66.133-46.933 89.6-98.133-29.867-2.133-59.733-4.267-89.6-6.4zM490.667 744.533v-106.667c-29.867 0-59.733 4.267-89.6 8.533 23.467 51.2 53.333 87.467 89.6 98.133zM490.667 595.2v-125.867h-128c2.133 49.067 10.667 96 23.467 136.533 34.133-6.4 68.267-8.533 104.533-10.667zM320 469.333h-128c4.267 61.867 25.6 121.6 59.733 168.533 29.867-10.667 61.867-19.2 91.733-25.6-14.933-42.667-21.333-91.733-23.467-142.933zM320 426.667c2.133-53.333 10.667-100.267 23.467-142.933-29.867-6.4-57.6-14.933-87.467-23.467-36.267 46.933-59.733 104.533-64 166.4h128zM358.4 243.2c17.067-40.533 40.533-74.667 66.133-98.133-53.333 14.933-100.267 42.667-138.667 81.067 23.467 4.267 49.067 10.667 72.533 17.067zM665.6 243.2c23.467-4.267 46.933-10.667 70.4-17.067-38.4-36.267-85.333-64-136.533-81.067 25.6 23.467 46.933 55.467 66.133 98.133zM680.533 283.733c12.8 42.667 21.333 91.733 23.467 142.933h125.867c-4.267-61.867-27.733-119.467-64-166.4-27.733 8.533-57.6 17.067-85.333 23.467zM701.867 469.333c-2.133 51.2-8.533 100.267-21.333 145.067 29.867 6.4 59.733 14.933 89.6 23.467 34.133-46.933 55.467-104.533 59.733-168.533h-128zM742.4 672c-25.6-8.533-51.2-14.933-76.8-19.2-19.2 46.933-44.8 83.2-76.8 108.8 59.733-14.933 113.067-46.933 153.6-89.6zM433.067 761.6c-29.867-23.467-57.6-61.867-76.8-108.8-25.6 4.267-51.2 12.8-76.8 19.2 42.667 44.8 93.867 74.667 153.6 89.6z" />
<glyph unicode="&#xe95f;" glyph-name="Internet2" d="M264.533 285.867l25.6 34.133c-59.733 46.933-93.867 115.2-93.867 187.733 0 134.4 115.2 243.2 258.133 243.2 128 0 234.667-85.333 253.867-204.8l42.667 6.4c-23.467 138.667-147.2 241.067-296.533 241.067-166.4 0-300.8-128-300.8-285.867 0-87.467 40.533-166.4 110.933-221.867zM915.2 680.533c-27.733 46.933-85.333 74.667-164.267 78.933-10.667 0-21.333-8.533-23.467-19.2 0-12.8 8.533-21.333 19.2-23.467 44.8-2.133 104.533-14.933 130.133-59.733 44.8-72.533-27.733-202.667-172.8-313.6-23.467 34.133-61.867 57.6-106.667 57.6-70.4 0-125.867-57.6-125.867-125.867 0-19.2 4.267-38.4 12.8-55.467-174.933-64-334.933-59.733-379.733 6.4-27.733 42.667 0 98.133 19.2 128 6.4 10.667 4.267 23.467-6.4 29.867s-23.467 4.267-29.867-6.4c-42.667-66.133-51.2-128-19.2-174.933s98.133-70.4 185.6-70.4c72.533 0 157.867 17.067 251.733 51.2 2.133 0 4.267 2.133 4.267 2.133 23.467-23.467 53.333-36.267 89.6-36.267 70.4 0 125.867 57.6 125.867 125.867 0 10.667-2.133 19.2-4.267 29.867 174.933 128 251.733 279.467 194.133 375.467zM599.467 189.867c-46.933 0-83.2 38.4-83.2 83.2s38.4 83.2 83.2 83.2 83.2-38.4 83.2-83.2-38.4-83.2-83.2-83.2z" />
<glyph unicode="&#xe960;" glyph-name="loading" d="M469.333 874.667v-149.333c0-36.267 27.733-64 64-64v149.333c0 36.267-27.733 64-64 64zM469.333 234.667v-149.333c0-36.267 27.733-64 64-64v149.333c0 36.267-27.733 64-64 64zM780.8 682.667c25.6 25.6 25.6 66.133 0 89.6l-104.533-104.533c-25.6-25.6-25.6-66.133 0-89.6l104.533 104.533zM221.867 213.333c-25.6-25.6-25.6-66.133 0-89.6l104.533 104.533c25.6 25.6 25.6 66.133 0 89.6l-104.533-104.533zM177.067 727.467l104.533-104.533c25.6-25.6 66.133-25.6 89.6 0l-104.533 104.533c-23.467 25.6-64 25.6-89.6 0zM629.333 275.2l104.533-104.533c25.6-25.6 66.133-25.6 89.6 0l-104.533 104.533c-23.467 23.467-64 23.467-89.6 0zM288 469.333h-149.333c-36.267 0-64-21.333-64-64h149.333c36.267 0 64 42.667 64 64zM778.667 469.333c-36.267 0-64-21.333-64-64h149.333c36.267 0 64 42.667 64 64h-149.333z" />
<glyph unicode="&#xe961;" glyph-name="more" d="M213.333 448c0-23.564-19.103-42.667-42.667-42.667s-42.667 19.103-42.667 42.667c0 23.564 19.103 42.667 42.667 42.667s42.667-19.103 42.667-42.667zM554.667 448c0-23.564-19.103-42.667-42.667-42.667s-42.667 19.103-42.667 42.667c0 23.564 19.103 42.667 42.667 42.667s42.667-19.103 42.667-42.667zM896 448c0-23.564-19.103-42.667-42.667-42.667s-42.667 19.103-42.667 42.667c0 23.564 19.103 42.667 42.667 42.667s42.667-19.103 42.667-42.667z" />
<glyph unicode="&#xe962;" glyph-name="notification2" d="M979.2 522.667c-4.267 21.333-19.2 36.267-38.4 42.667l-192 68.267 21.333 241.067-309.333-238.933c-17.067-12.8-25.6-34.133-23.467-55.467s17.067-38.4 36.267-46.933l149.333-59.733-108.8-433.067 228.267 217.6-29.867 29.867-121.6-117.333 81.067 326.4-181.333 76.8c-8.533 4.267-10.667 10.667-10.667 12.8s0 10.667 6.4 14.933l232.533 179.2-14.933-174.933 224-78.933c8.533-2.133 10.667-8.533 10.667-12.8 0-2.133 2.133-10.667-4.267-14.933l-134.4-128 29.867-29.867 134.4 128c12.8 12.8 19.2 32 14.933 53.333zM149.333 682.667h234.667c12.8 0 21.333 8.533 21.333 21.333s-8.533 21.333-21.333 21.333h-234.667c-12.8 0-21.333-8.533-21.333-21.333s8.533-21.333 21.333-21.333zM384 426.667c0 12.8-8.533 21.333-21.333 21.333h-298.667c-12.8 0-21.333-8.533-21.333-21.333s8.533-21.333 21.333-21.333h298.667c12.8 0 21.333 8.533 21.333 21.333zM448 192h-298.667c-12.8 0-21.333-8.533-21.333-21.333s8.533-21.333 21.333-21.333h298.667c12.8 0 21.333 8.533 21.333 21.333s-8.533 21.333-21.333 21.333z" />
<glyph unicode="&#xe963;" glyph-name="personal-center" d="M554.667 704h-93.867c-46.933 0-76.8-32-76.8-78.933v-147.2c0-36.267 21.333-74.667 55.467-74.667h200.533v221.867c0 46.933-38.4 78.933-85.333 78.933zM597.333 448h-157.867c-12.8 0-12.8 19.2-12.8 32v147.2c0 23.467 10.667 36.267 34.133 36.267h93.867c23.467 0 42.667-12.8 42.667-36.267v-179.2zM541.867 292.267l-32-32-32 32c-8.533 8.533-21.333 8.533-29.867 0s-6.4-21.333 2.133-29.867l42.667-40.533v-72.533h42.667v72.533l40.533 40.533c8.533 8.533 6.4 21.333 0 29.867s-27.733 8.533-34.133 0zM512 832c-211.2 0-384-172.8-384-384s172.8-384 384-384 384 172.8 384 384-172.8 384-384 384zM362.667 145.067v181.333c0 6.4-2.133 14.933 4.267 14.933h285.867c6.4 0 10.667-10.667 10.667-14.933v-183.467c-44.8-21.333-91.733-34.133-145.067-34.133-59.733-2.133-113.067 12.8-155.733 36.267zM704 166.4v160c0 29.867-23.467 57.6-53.333 57.6h-283.733c-29.867 0-46.933-29.867-46.933-57.6v-155.733c-85.333 61.867-145.067 162.133-145.067 277.333 0 187.733 151.467 341.333 339.2 341.333s341.333-153.6 341.333-341.333c-2.133-117.333-61.867-219.733-151.467-281.6z" />
<glyph unicode="&#xe964;" glyph-name="pull-down" d="M761.6 590.933c-8.533 8.533-21.333 8.533-29.867 2.133l-234.667-217.6-236.8 215.467c-8.533 8.533-21.333 6.4-29.867-2.133s-6.4-21.333 2.133-29.867l264.533-241.067 264.533 241.067c8.533 8.533 8.533 23.467 0 32z" />
<glyph unicode="&#xe965;" glyph-name="reading" d="M874.667 674.133c0 21.333-10.667 38.4-25.6 51.2-17.067 12.8-38.4 14.933-57.6 8.533l-277.333-89.6-281.6 85.333c-19.2 6.4-40.533 2.133-57.6-10.667s-25.6-32-25.6-51.2l2.133-469.333 364.8-110.933 360.533 115.2-2.133 471.467zM192 232.533v437.333c0 6.4 2.133 12.8 8.533 17.067s12.8 4.267 19.2 4.267l270.933-83.2 2.133-467.2-300.8 91.733zM535.467 140.8l-2.133 467.2 268.8 85.333c6.4 2.133 12.8 0 19.2-2.133 6.4-4.267 8.533-10.667 8.533-17.067l2.133-439.467-296.533-93.867zM228.267 791.467l283.733-98.133 264.533 96c10.667 4.267 17.067 17.067 12.8 27.733s-17.067 17.067-27.733 12.8l-249.6-91.733-270.933 91.733c-10.667 4.267-23.467-2.133-27.733-12.8-2.133-10.667 4.267-23.467 14.933-25.6z" />
<glyph unicode="&#xe966;" glyph-name="refresh" d="M512 832c-187.733 0-341.333-153.6-341.333-341.333 0-172.8 130.133-315.733 296.533-337.067l-57.6-40.533c-10.667-6.4-12.8-19.2-4.267-29.867 4.267-6.4 10.667-8.533 17.067-8.533 4.267 0 8.533 2.133 12.8 4.267l115.2 81.067-81.067 115.2c-6.4 10.667-19.2 12.8-29.867 4.267-10.667-6.4-12.8-19.2-4.267-29.867l36.267-51.2c-145.067 21.333-256 145.067-256 294.4 0 164.267 134.4 298.667 298.667 298.667s298.667-134.4 298.667-298.667c0-96-46.933-185.6-123.733-243.2l25.6-34.133c89.6 64 140.8 168.533 140.8 277.333-2.133 185.6-155.733 339.2-343.467 339.2z" />
<glyph unicode="&#xe967;" glyph-name="refresh2" d="M439.467 234.667c-10.667-6.4-12.8-19.2-4.267-29.867l36.267-51.2c-145.067 19.2-256 142.933-258.133 292.267 0 117.333 68.267 226.133 174.933 275.2l-17.067 38.4c-123.733-55.467-200.533-179.2-200.533-313.6 2.133-172.8 132.267-315.733 298.667-334.933l-57.6-40.533c-10.667-6.4-12.8-19.2-4.267-29.867 4.267-6.4 10.667-8.533 17.067-8.533 4.267 0 8.533 2.133 12.8 4.267l115.2 81.067-83.2 110.933c-6.4 10.667-21.333 12.8-29.867 6.4zM757.333 693.333c-53.333 53.333-123.733 87.467-196.267 96l57.6 40.533c10.667 6.4 12.8 19.2 4.267 29.867-6.4 10.667-19.2 12.8-29.867 4.267l-115.2-81.067 81.067-115.2c4.267-6.4 10.667-8.533 17.067-8.533 4.267 0 8.533 2.133 12.8 4.267 10.667 6.4 12.8 19.2 4.267 29.867l-34.133 53.333c64-8.533 121.6-36.267 168.533-83.2 57.6-55.467 87.467-130.133 89.6-211.2 0-117.333-68.267-226.133-174.933-275.2l17.067-38.4c121.6 55.467 200.533 179.2 200.533 313.6-2.133 91.733-38.4 177.067-102.4 241.067z" />
<glyph unicode="&#xe968;" glyph-name="refresh3" d="M853.333 682.667h-388.267c-6.4 0-10.667 2.133-14.933 6.4l-81.067 81.067c-12.8 12.8-27.733 19.2-44.8 19.2h-153.6c-36.267 0-64-27.733-64-64v-554.667c0-36.267 27.733-64 64-64h746.667v512c0 36.267-27.733 64-64 64zM874.667 149.333h-704c-12.8 0-21.333 8.533-21.333 21.333v554.667c0 12.8 8.533 21.333 21.333 21.333h153.6c6.4 0 10.667-2.133 14.933-6.4l81.067-81.067c12.8-12.8 27.733-19.2 44.8-19.2h388.267c12.8 0 21.333-8.533 21.333-21.333v-469.333zM494.933 362.667c-10.667-4.267-17.067-17.067-12.8-27.733l19.2-46.933c-42.667 12.8-74.667 53.333-74.667 100.267 0 27.733 10.667 55.467 32 74.667l-29.867 29.867c-27.733-27.733-44.8-66.133-44.8-106.667 0-66.133 44.8-121.6 106.667-140.8l-29.867-25.6c-8.533-8.533-10.667-21.333-2.133-29.867 4.267-4.267 10.667-6.4 17.067-6.4 4.267 0 10.667 2.133 14.933 4.267l74.667 64-38.4 98.133c-8.533 10.667-21.333 17.067-32 12.8zM554.667 535.467l29.867 29.867c8.533 8.533 8.533 21.333 0 29.867s-21.333 8.533-29.867 0l-70.4-70.4 44.8-93.867c4.267-8.533 10.667-12.8 19.2-12.8 2.133 0 6.4 0 8.533 2.133 10.667 4.267 14.933 17.067 10.667 27.733l-21.333 44.8c51.2-6.4 93.867-49.067 93.867-104.533 0-27.733-10.667-53.333-29.867-74.667l29.867-29.867c27.733 27.733 42.667 66.133 42.667 104.533 0 76.8-55.467 136.533-128 147.2z" />
<glyph unicode="&#xe969;" glyph-name="tabulation" d="M192 746.667h640c12.8 0 21.333 8.533 21.333 21.333s-8.533 21.333-21.333 21.333h-640c-12.8 0-21.333-8.533-21.333-21.333s8.533-21.333 21.333-21.333zM832 469.333h-640c-12.8 0-21.333-8.533-21.333-21.333s8.533-21.333 21.333-21.333h640c12.8 0 21.333 8.533 21.333 21.333s-8.533 21.333-21.333 21.333zM832 149.333h-640c-12.8 0-21.333-8.533-21.333-21.333s8.533-21.333 21.333-21.333h640c12.8 0 21.333 8.533 21.333 21.333s-8.533 21.333-21.333 21.333z" />
<glyph unicode="&#xe96a;" glyph-name="upward" d="M761.6 362.667l-264.533 243.2-264.533-243.2c-8.533-8.533-8.533-21.333-2.133-29.867 8.533-8.533 21.333-8.533 29.867-2.133l236.8 215.467 236.8-215.467c4.267-4.267 8.533-6.4 14.933-6.4s10.667 2.133 14.933 6.4c6.4 10.667 6.4 23.467-2.133 32z" />
<glyph unicode="&#xe96b;" glyph-name="Yoyo-Filled" d="M642.133 795.733c-12.8 49.067-61.867 53.333-78.933 55.467-29.867 2.133-70.4 2.133-100.267 0-55.467-4.267-76.8-32-81.067-53.333-168.533-23.467-253.867-98.133-253.867-228.267v-57.6c0-157.867 130.133-234.667 377.6-234.667 260.267 0 390.4 74.667 390.4 236.8v55.467c0 128-85.333 202.667-253.867 226.133zM512 426.667c-36.267 0-64 27.733-64 64s27.733 64 64 64 64-27.733 64-64-27.733-64-64-64zM853.333 514.133c0-57.6-21.333-119.467-108.8-157.867 40.533 32 44.8 74.667 44.8 117.333v44.8c0 72.533-29.867 145.067-189.867 164.267-27.733 4.267-57.6 4.267-91.733 4.267-228.267 0-273.067-85.333-273.067-168.533v-46.933c0-44.8 8.533-89.6 53.333-121.6-98.133 38.4-117.333 106.667-117.333 162.133v57.6c0 66.133 29.867 157.867 213.333 183.467v-27.733h42.667v57.6c0 8.533 0 23.467 38.4 25.6 27.733 2.133 66.133 2.133 91.733 0 29.867-2.133 36.267-10.667 38.4-27.733v-55.467h42.667v27.733c179.2-27.733 213.333-113.067 213.333-183.467v-55.467zM541.867 787.2c-8.533 2.133-19.2 2.133-32 2.133-10.667 0-19.2 0-27.733 0-19.2-2.133-34.133-8.533-34.133-29.867v-34.133h128v34.133c-2.133 21.333-14.933 27.733-34.133 27.733zM512 234.667c-136.533 0-213.333-61.867-213.333-166.4v-25.6h42.667v25.6c0 102.4 93.867 123.733 170.667 123.733s170.667-21.333 170.667-123.733v-25.6h42.667v25.6c0 104.533-76.8 166.4-213.333 166.4zM512 136.533c-59.733 0-106.667-21.333-106.667-81.067v-12.8h213.333v12.8c0 59.733-46.933 81.067-106.667 81.067z" />
<glyph unicode="&#xe96c;" glyph-name="Yoyo-Line" d="M642.133 795.733c-12.8 49.067-61.867 53.333-78.933 55.467-29.867 2.133-70.4 2.133-100.267 0-55.467-4.267-76.8-32-81.067-53.333-168.533-23.467-253.867-98.133-253.867-228.267v-57.6c0-157.867 130.133-234.667 377.6-234.667 260.267 0 390.4 74.667 390.4 236.8v55.467c0 128-85.333 202.667-253.867 226.133zM388.267 326.4c-117.333 25.6-132.267 91.733-132.267 140.8v46.933c0 64 25.6 147.2 251.733 147.2 32 0 61.867-2.133 89.6-4.267 151.467-19.2 170.667-87.467 170.667-142.933v-44.8c0-53.333-21.333-115.2-128-140.8v0c-42.667-6.4-83.2-8.533-134.4-8.533-44.8 0-83.2 2.133-117.333 6.4zM853.333 514.133c0-40.533-12.8-85.333-51.2-121.6 8.533 21.333 8.533 46.933 8.533 76.8v42.667c0 108.8-68.267 168.533-209.067 185.6-27.733 4.267-59.733 4.267-93.867 4.267-198.4 2.133-294.4-59.733-294.4-187.733v-46.933c0-32 2.133-59.733 14.933-83.2-44.8 38.4-57.6 85.333-57.6 128v57.6c0 66.133 29.867 157.867 213.333 183.467v-27.733h42.667v57.6c0 8.533 0 23.467 38.4 25.6 27.733 2.133 66.133 2.133 91.733 0 29.867-2.133 36.267-10.667 38.4-27.733v-55.467h42.667v27.733c179.2-27.733 213.333-113.067 213.333-183.467v-55.467zM512 234.667c-136.533 0-213.333-61.867-213.333-166.4v-25.6h42.667v25.6c0 102.4 93.867 123.733 170.667 123.733s170.667-21.333 170.667-123.733v-25.6h42.667v25.6c0 104.533-76.8 166.4-213.333 166.4zM512 138.667c-66.133 0-106.667-32-106.667-85.333v-10.667h42.667v10.667c0 10.667 0 42.667 64 42.667s64-32 64-42.667v-10.667h42.667v10.667c0 53.333-40.533 85.333-106.667 85.333zM597.333 490.667c0-47.128-38.205-85.333-85.333-85.333s-85.333 38.205-85.333 85.333c0 47.128 38.205 85.333 85.333 85.333s85.333-38.205 85.333-85.333z" />
<glyph unicode="&#xe96d;" glyph-name="airplane-mode" d="M96 646.4l268.8-155.733-2.133-315.733 401.067 494.933c6.4 8.533 6.4 23.467-2.133 29.867s-23.467 6.4-29.867-2.133l-326.4-403.2 2.133 219.733-202.667 117.333 667.733 189.867-76.8-533.333-164.267 91.733c-10.667 6.4-23.467 2.133-29.867-8.533s-2.133-23.467 8.533-29.867l219.733-121.6 93.867 661.333-827.733-234.667z" />
<glyph unicode="&#xe96e;" glyph-name="target" d="M768 554.667c0 49.067-12.8 98.133-36.267 142.933-6.4 10.667-19.2 14.933-29.867 8.533s-14.933-19.2-8.533-29.867c21.333-36.267 32-78.933 32-121.6 0-140.8-115.2-256-256-256s-256 115.2-256 256 115.2 256 256 256c40.533 0 81.067-8.533 117.333-27.733 10.667-6.4 23.467-2.133 27.733 8.533 6.4 10.667 2.133 23.467-8.533 27.733-42.667 21.333-89.6 34.133-136.533 34.133-164.267 0-298.667-134.4-298.667-298.667 0-98.133 49.067-185.6 121.6-241.067l-68.267-136.533 38.4-19.2 66.133 132.267c42.667-21.333 89.6-34.133 140.8-34.133s98.133 12.8 140.8 34.133l66.133-132.267 38.4 19.2-68.267 136.533c72.533 55.467 121.6 142.933 121.6 241.067zM469.333 682.667c12.8 0 27.733-2.133 40.533-6.4 10.667-4.267 23.467 2.133 27.733 12.8s-2.133 23.467-12.8 27.733c-19.2 6.4-38.4 8.533-55.467 8.533-93.867 0-170.667-76.8-170.667-170.667s76.8-170.667 170.667-170.667 170.667 76.8 170.667 170.667c0 19.2-4.267 40.533-10.667 59.733-4.267 10.667-17.067 17.067-27.733 12.8s-17.067-17.067-12.8-27.733c4.267-14.933 8.533-29.867 8.533-44.8 0-70.4-57.6-128-128-128s-128 57.6-128 128 57.6 128 128 128zM825.6 789.333h-76.8l70.4 70.4c8.533 8.533 8.533 21.333 0 29.867s-21.333 8.533-29.867 0l-70.4-70.4v76.8c0 12.8-8.533 21.333-21.333 21.333 0 0 0 0 0 0-12.8 0-21.333-10.667-21.333-21.333v-119.467l-228.267-228.267c-8.533-8.533-8.533-21.333 0-29.867 4.267-4.267 10.667-6.4 14.933-6.4s10.667 2.133 14.933 6.4l228.267 228.267h119.467c0 0 0 0 0 0 12.8 0 21.333 8.533 21.333 21.333s-8.533 21.333-21.333 21.333z" />
<glyph unicode="&#xe96f;" glyph-name="taxi" d="M405.333 832h213.333c12.8 0 21.333 8.533 21.333 21.333s-8.533 21.333-21.333 21.333h-213.333c-12.8 0-21.333-8.533-21.333-21.333s8.533-21.333 21.333-21.333zM838.4 576h-34.133l-51.2 187.733c-8.533 27.733-34.133 46.933-61.867 46.933h-379.733c-32 0-57.6-21.333-64-53.333l-32-181.333h-29.867c-32 0-57.6-27.733-57.6-59.733v-217.6h42.667v-106.667h128v106.667h426.667v-106.667h128v106.667h42.667v217.6c0 32-25.6 59.733-57.6 59.733zM290.133 750.933c2.133 10.667 10.667 17.067 21.333 17.067h379.733c8.533 0 17.067-6.4 21.333-14.933l49.067-177.067h-503.467l32 174.933zM256 234.667h-42.667v64h42.667v-64zM810.667 234.667h-42.667v64h42.667v-64zM853.333 341.333h-682.667v174.933c0 8.533 6.4 17.067 14.933 17.067h652.8c8.533 0 14.933-8.533 14.933-17.067v-174.933zM640 448h128v-42.667h-128v42.667zM256 448h128v-42.667h-128v42.667z" />
<glyph unicode="&#xe970;" glyph-name="charge-up" d="M904.533 531.2c8.533 6.4 12.8 17.067 12.8 25.6 0 10.667-2.133 19.2-10.667 27.733l-44.8 51.2c-14.933 14.933-38.4 17.067-53.333 4.267l-296.533-253.867v-108.8h98.133l294.4 253.867zM554.667 320v46.933l277.333 238.933 40.533-44.8-279.467-241.067h-38.4zM256 234.667h42.667v64h42.667c12.8 0 21.333 8.533 21.333 21.333s-8.533 21.333-21.333 21.333h-42.667v42.667h70.4c12.8 0 21.333 8.533 21.333 21.333s-8.533 21.333-21.333 21.333h-40.533l32 29.867c8.533 8.533 8.533 21.333 0 27.733-8.533 8.533-21.333 6.4-29.867-2.133l-55.467-55.467-55.467 57.6c-8.533 8.533-21.333 8.533-29.867 0s-8.533-19.2 0-27.733l32-29.867h-42.667c-12.8 0-21.333-8.533-21.333-21.333s8.533-21.333 21.333-21.333h76.8v-42.667h-46.933c-12.8 0-21.333-8.533-21.333-21.333s8.533-21.333 21.333-21.333h46.933v-64zM490.667 192h341.333v-42.667h-341.333v42.667zM889.6 448h-36.267c-12.8 0-21.333-8.533-21.333-21.333s8.533-21.333 21.333-21.333h36.267c12.8 0 27.733-8.533 27.733-21.333v-341.333h-486.4c8.533 21.333 14.933 38.4 14.933 57.6v371.2c0 25.6-8.533 53.333-25.6 70.4-17.067 19.2-38.4 32-64 32h-249.6v-426.667h85.333v-149.333h768v386.133c0 36.267-34.133 64-70.4 64zM149.333 533.333h209.067c10.667 0 21.333-6.4 29.867-17.067s14.933-25.6 14.933-40.533v-292.267c-12.8 8.533-29.867 8.533-44.8 8.533h-209.067v341.333zM234.667 149.333h123.733c25.6 0 44.8-23.467 44.8-53.333 0-27.733-14.933-53.333-36.267-53.333h-132.267v106.667z" />
<glyph unicode="&#xe971;" glyph-name="currency-conversion" d="M413.867 232.533c-10.667-6.4-12.8-19.2-4.267-29.867l38.4-55.467c-151.467 19.2-270.933 149.333-270.933 307.2 0 10.667 0 23.467 2.133 34.133l-42.667 4.267c-2.133-12.8-2.133-25.6-2.133-38.4 0-96 38.4-183.467 106.667-249.6 57.6-55.467 130.133-89.6 206.933-100.267l-64-44.8c-10.667-6.4-12.8-19.2-4.267-29.867 4.267-6.4 10.667-8.533 17.067-8.533 4.267 0 8.533 2.133 12.8 4.267l119.467 83.2-83.2 119.467c-8.533 8.533-23.467 10.667-32 4.267zM558.933 680.533c4.267 0 8.533 2.133 12.8 4.267 10.667 6.4 12.8 19.2 4.267 29.867l-38.4 55.467c68.267-8.533 130.133-38.4 179.2-87.467 59.733-57.6 91.733-136.533 93.867-219.733 0-17.067-2.133-34.133-4.267-51.2l42.667-6.4c2.133 19.2 4.267 38.4 4.267 59.733 0 96-38.4 183.467-106.667 249.6-57.6 55.467-130.133 89.6-206.933 100.267l61.867 44.8c10.667 6.4 12.8 19.2 4.267 29.867-8.533 6.4-21.333 8.533-29.867 2.133l-119.467-83.2 83.2-119.467c4.267-4.267 10.667-8.533 19.2-8.533zM800 277.333h-36.267l23.467 25.6c8.533 8.533 8.533 23.467 0 32s-21.333 8.533-29.867 0l-46.933-49.067-49.067 49.067c-8.533 8.533-21.333 8.533-29.867 0s-8.533-23.467 0-32l23.467-25.6h-36.267c-12.8 0-21.333-8.533-21.333-21.333s8.533-21.333 21.333-21.333h64v-21.333h-29.867c-12.8 0-21.333-8.533-21.333-21.333s8.533-21.333 21.333-21.333h29.867v-64h42.667v64h40.533c12.8 0 21.333 8.533 21.333 21.333s-8.533 21.333-21.333 21.333h-40.533v21.333h74.667c12.8 0 21.333 8.533 21.333 21.333s-10.667 21.333-21.333 21.333zM710.4 424.533c-110.933 0-200.533-89.6-200.533-200.533s89.6-200.533 200.533-200.533 200.533 89.6 200.533 200.533-91.733 200.533-200.533 200.533zM710.4 68.267c-87.467 0-157.867 70.4-157.867 157.867s70.4 157.867 157.867 157.867c87.467 0 157.867-70.4 157.867-157.867s-72.533-157.867-157.867-157.867zM294.4 469.333c110.933 0 200.533 89.6 200.533 200.533s-89.6 198.4-200.533 198.4-200.533-89.6-200.533-200.533 89.6-198.4 200.533-198.4zM445.867 669.867c0-83.2-66.133-149.333-147.2-155.733 0 2.133-2.133 2.133-2.133 4.267v44.8c0 0 4.267 0 4.267 2.133 12.8 2.133 27.733 8.533 38.4 19.2 12.8 12.8 21.333 27.733 21.333 44.8 0 19.2-8.533 36.267-23.467 49.067-19.2 14.933-36.267 17.067-51.2 17.067-10.667 0-17.067 2.133-21.333 6.4-6.4 4.267-8.533 8.533-8.533 14.933 0 4.267 2.133 10.667 6.4 14.933 10.667 10.667 34.133 12.8 46.933 2.133 4.267-4.267 10.667-8.533 10.667-17.067 0-12.8 10.667-21.333 21.333-21.333 12.8 0 21.333 10.667 21.333 21.333 0 19.2-14.933 36.267-32 49.067-8.533 6.4-10.667 10.667-32 12.8v46.933c85.333-6.4 147.2-74.667 147.2-155.733zM256 823.467v-44.8c0-4.267-17.067-8.533-25.6-17.067-12.8-12.8-19.2-29.867-17.067-49.067 2.133-17.067 12.8-34.133 27.733-46.933 17.067-12.8 32-12.8 46.933-12.8 12.8 0 19.2-2.133 25.6-6.4s8.533-10.667 10.667-17.067c0-4.267-2.133-10.667-6.4-12.8-12.8-10.667-34.133-12.8-44.8-4.267-8.533 6.4-12.8 14.933-10.667 23.467 2.133 10.667-6.4 21.333-19.2 23.467-10.667 2.133-21.333-6.4-23.467-19.2-2.133-25.6 6.4-46.933 27.733-64 6.4-4.267 10.667-8.533 17.067-10.667 0 0-4.267-2.133-4.267-2.133v-44.8c0 0 4.267-2.133 4.267-2.133-72.533 12.8-130.133 76.8-130.133 153.6-4.267 76.8 57.6 140.8 121.6 153.6z" />
<glyph unicode="&#xe972;" glyph-name="dynamics" d="M661.333 661.333h-34.133l8.533 53.333c2.133 10.667-6.4 23.467-17.067 25.6s-23.467-8.533-23.467-19.2l-10.667-59.733h-93.867l8.533 53.333c2.133 10.667-6.4 23.467-17.067 25.6s-23.467-8.533-23.467-19.2l-10.667-59.733h-42.667c-12.8 0-21.333-8.533-21.333-21.333s8.533-21.333 21.333-21.333h36.267l-14.933-85.333h-42.667c-12.8 0-21.333-8.533-21.333-21.333s8.533-21.333 21.333-21.333h36.267l-10.667-66.133c-2.133-10.667 6.4-23.467 17.067-23.467 2.133 0 2.133 0 2.133 0 10.667 0 19.2 8.533 21.333 19.2l10.667 72.533h93.867l-10.667-66.133c-2.133-10.667 6.4-23.467 17.067-23.467 2.133 0 2.133 0 2.133 0 10.667 0 19.2 8.533 21.333 19.2l10.667 72.533h44.8c12.8 0 21.333 8.533 21.333 21.333s-8.533 21.333-21.333 21.333h-34.133l12.8 85.333h42.667c12.8 0 21.333 8.533 21.333 21.333s-8.533 17.067-21.333 17.067zM563.2 533.333h-93.867l12.8 85.333h93.867l-12.8-85.333zM829.867 832h-640c-36.267 0-61.867-27.733-61.867-64v-448h200.533l181.333-226.133 181.333 226.133h204.8v448c0 36.267-32 64-66.133 64zM853.333 362.667h-183.467l-160-200.533-160 200.533h-179.2v405.333c0 12.8 6.4 21.333 19.2 21.333h640c10.667 0 23.467-8.533 23.467-21.333v-405.333z" />
<glyph unicode="&#xe973;" glyph-name="error3" d="M277.333 202.667c-6.4 0-10.667 2.133-14.933 6.4-8.533 8.533-8.533 21.333 0 29.867l467.2 467.2c8.533 8.533 21.333 8.533 29.867 0s8.533-21.333 0-29.867l-467.2-467.2c-2.133-4.267-8.533-6.4-14.933-6.4zM746.667 217.6c-6.4 0-10.667 2.133-14.933 6.4l-454.4 454.4c-8.533 8.533-8.533 21.333 0 29.867s21.333 8.533 29.867 0l454.4-452.267c8.533-8.533 8.533-21.333 0-29.867-4.267-6.4-10.667-8.533-14.933-8.533z" />
<glyph unicode="&#xe974;" glyph-name="excel" d="M652.8 849.067l-10.667 4.267h-328.533c-36.267 0-57.6-23.467-57.6-59.733v-132.267h-46.933c-36.267 0-59.733-38.4-59.733-72.533v-375.467h106.667v-170.667h618.667v567.467l-221.867 238.933zM640 789.333l157.867-170.667h-130.133c-12.8 0-29.867 14.933-29.867 25.6v145.067zM192 588.8c0 10.667 4.267 29.867 17.067 29.867h302.933c12.8 0 21.333-19.2 21.333-29.867v-332.8h-341.333v332.8zM298.667 85.333v128h277.333v375.467c0 36.267-27.733 72.533-64 72.533h-213.333v132.267c0 12.8 2.133 17.067 14.933 17.067h283.733v-166.4c0-36.267 36.267-68.267 72.533-68.267h162.133v-490.667h-533.333zM462.933 548.267c-8.533 8.533-21.333 8.533-29.867 0l-70.4-74.667-70.4 72.533c-8.533 8.533-21.333 8.533-29.867 0s-8.533-21.333 0-29.867l70.4-74.667-70.4-74.667c-8.533-8.533-8.533-21.333 0-29.867 4.267-4.267 8.533-6.4 14.933-6.4s10.667 2.133 14.933 6.4l70.4 72.533 70.4-72.533c4.267-4.267 10.667-6.4 14.933-6.4s10.667 2.133 14.933 6.4c8.533 8.533 8.533 21.333 0 29.867l-70.4 74.667 70.4 74.667c8.533 10.667 8.533 23.467 0 32z" />
<glyph unicode="&#xe975;" glyph-name="glory" d="M832 597.333c0 177.067-142.933 320-320 320s-320-142.933-320-320c0-104.533 51.2-198.4 128-256v0-339.2l192 125.867 192-125.867v339.2c76.8 57.6 128 151.467 128 256zM661.333 83.2l-149.333 98.133-149.333-98.133v230.4c44.8-23.467 96-36.267 149.333-36.267s104.533 12.8 149.333 36.267v-230.4zM512 320c-153.6 0-277.333 123.733-277.333 277.333s123.733 277.333 277.333 277.333 277.333-123.733 277.333-277.333-123.733-277.333-277.333-277.333zM590.933 686.933l-78.933-76.8-78.933 78.933c-8.533 8.533-21.333 8.533-29.867 0s-8.533-21.333 0-29.867l87.467-87.467v-145.067h42.667v142.933l87.467 87.467c8.533 8.533 8.533 21.333 0 29.867s-21.333 8.533-29.867 0z" />
<glyph unicode="&#xe976;" glyph-name="pdf" d="M588.8 420.267c-32 27.733-61.867 57.6-83.2 87.467 14.933 42.667 23.467 81.067 17.067 108.8-6.4 29.867-27.733 46.933-57.6 49.067h-6.4l-4.267-4.267c-27.733-12.8-40.533-38.4-36.267-70.4 2.133-27.733 17.067-59.733 40.533-91.733-14.933-36.267-36.267-72.533-57.6-106.667-64-17.067-117.333-38.4-142.933-66.133-21.333-21.333-23.467-46.933-10.667-70.4l4.267-4.267c6.4-6.4 17.067-12.8 34.133-12.8 10.667 0 23.467 2.133 38.4 12.8 32 17.067 68.267 57.6 102.4 104.533 46.933 10.667 100.267 19.2 151.467 21.333 46.933-38.4 93.867-66.133 132.267-76.8 46.933-12.8 68.267 4.267 81.067 19.2l2.133 4.267v4.267c4.267 17.067 2.133 46.933-38.4 68.267-36.267 19.2-98.133 25.6-166.4 23.467zM300.8 285.867c-6.4-2.133-14.933-8.533-21.333-6.4-2.133 4.267 0 8.533 6.4 17.067 12.8 14.933 38.4 27.733 68.267 38.4-17.067-21.333-36.267-38.4-53.333-49.067zM467.2 620.8c6.4-2.133 10.667-6.4 12.8-14.933 2.133-12.8 0-32-4.267-53.333-8.533 17.067-14.933 32-14.933 44.8-2.133 12.8 0 19.2 6.4 23.467zM456.533 405.333c10.667 19.2 21.333 38.4 29.867 57.6 12.8-14.933 27.733-32 44.8-46.933-25.6-2.133-51.2-6.4-74.667-10.667zM733.867 358.4c12.8-6.4 14.933-12.8 14.933-17.067-8.533-4.267-21.333-4.267-32 0-21.333 6.4-46.933 19.2-72.533 36.267 38.4-2.133 70.4-8.533 89.6-19.2zM633.6 870.4l-6.4 4.267h-392.533c-36.267 0-64-25.6-64-59.733v-793.6h682.667v610.133l-219.733 238.933zM640 808.533l142.933-168.533h-130.133c-12.8 0-14.933 12.8-14.933 25.6v142.933zM810.667 64h-597.333v750.933c0 10.667 8.533 17.067 21.333 17.067h362.667v-166.4c0-36.267 21.333-68.267 57.6-68.267h155.733v-533.333z" />
</font>
</defs>
</svg>
