<?xml version="1.0" encoding="utf-8"?>
<!-- Generator: Adobe Illustrator 21.0.2, SVG Export Plug-In . SVG Version: 6.00 Build 0)  -->
<svg version="1.1" id="图层_1" xmlns="http://www.w3.org/2000/svg" xmlns:xlink="http://www.w3.org/1999/xlink" x="0px" y="0px"
	 viewBox="0 0 446 411" style="enable-background:new 0 0 446 411;" xml:space="preserve">
<style type="text/css">
	.st0{opacity:0.2;}
</style>
<path class="st0" d="M321.4,215.3v-40.5c0-11.9-9.7-21.7-21.7-21.7H228V96.3c8.4-2.2,14.7-9.9,14.7-19c0-10.9-8.8-19.7-19.7-19.7
	s-19.7,8.8-19.7,19.7c0,9.1,6.3,16.8,14.7,19v56.8h-71.6c-11.9,0-21.7,9.7-21.7,21.7v40.5c0,11.9,9.7,21.7,21.7,21.7h153.4
	C311.7,237,321.4,227.3,321.4,215.3z M213.3,77.3c0-5.4,4.4-9.7,9.7-9.7s9.7,4.4,9.7,9.7c0,5.4-4.3,9.7-9.7,9.7
	S213.3,82.6,213.3,77.3z M311.4,215.3c0,6.4-5.3,11.7-11.7,11.7H146.3c-6.4,0-11.7-5.3-11.7-11.7v-40.5c0-6.4,5.3-11.7,11.7-11.7
	h153.4c6.4,0,11.7,5.3,11.7,11.7L311.4,215.3L311.4,215.3L311.4,215.3z"/>
<path class="st0" d="M278,190.1h-56.3c-2.8,0-5,2.2-5,5s2.2,5,5,5H278c2.8,0,5-2.2,5-5S280.7,190.1,278,190.1z"/>
<path class="st0" d="M169.3,195.1c0,3.5,2.9,6.4,6.4,6.4c3.5,0,6.4-2.9,6.4-6.4c0-3.5-2.9-6.4-6.4-6.4
	C172.2,188.7,169.3,191.5,169.3,195.1C169.3,195.1,169.3,195.1,169.3,195.1z"/>
<path class="st0" d="M290.1,116.6c0.9,0.6,1.9,0.9,2.9,0.9c1.5,0,3.1-0.7,4.1-2.1c7.9-11.2,12.1-24.3,12.1-38.2s-4.2-27-12.1-38.1
	c-1.6-2.2-4.7-2.8-7-1.2c-2.2,1.6-2.8,4.7-1.2,7c6.7,9.5,10.3,20.6,10.3,32.4s-3.5,22.9-10.3,32.4
	C287.3,111.9,287.8,115,290.1,116.6z M261.9,95.2c0.9,0.6,1.9,0.9,2.9,0.9c1.5,0,3.1-0.7,4.1-2.1c3.5-4.9,5.3-10.7,5.3-16.7
	s-1.8-11.8-5.3-16.7c-1.6-2.2-4.7-2.8-7-1.2c-2.2,1.6-2.8,4.7-1.2,7c2.3,3.2,3.5,7,3.5,10.9s-1.2,7.7-3.5,10.9
	C259,90.4,259.6,93.6,261.9,95.2z M156,38c-2.3-1.6-5.4-1.1-7,1.2c-7.9,11.2-12.1,24.4-12.1,38.2s4.2,27,12.1,38.2
	c1,1.4,2.5,2.1,4.1,2.1c1,0,2-0.3,2.9-0.9c2.2-1.6,2.8-4.7,1.2-7c-6.7-9.5-10.3-20.6-10.3-32.4s3.5-23,10.3-32.4
	C158.8,42.6,158.2,39.6,156,38z M184.2,59.4c-2.2-1.6-5.4-1.1-7,1.2c-3.5,4.9-5.3,10.7-5.3,16.7c0,6,1.8,11.8,5.3,16.7
	c1,1.4,2.5,2.1,4.1,2.1c1,0,2-0.3,2.9-0.9c2.2-1.6,2.8-4.7,1.2-7c-2.3-3.2-3.5-7-3.5-10.9c0-3.9,1.2-7.7,3.5-10.9
	C187,64.1,186.5,60.9,184.2,59.4z"/>
<g class="st0">
	<path d="M71.9,355.5c1.5,0,2.4,0,3.8-0.3c-0.1,1.3-0.2,2.2-0.2,3.8v16.9c0,1.9,0.1,3.3,0.3,4.8h-3.4v-2.5H43.3
		c-1.8,0-3.1,0.1-4.5,0.3v-3.5c1.2,0.2,2.4,0.2,4.4,0.2h29.2V368H45.1c-1.9,0-3.1,0-4.3,0.2v-3.4C42,365,43,365,45.2,365h27.2v-6.6
		H43.6c-2,0-2.9,0-4.4,0.2v-3.4c1.3,0.2,2.4,0.2,4.5,0.2h12.7v-14.2c0-2.1-0.1-3.2-0.3-4.3h3.7c-0.2,1.1-0.3,2.2-0.3,4.3v14.2H71.9z
		 M42.8,339.9c3.9,5,4.9,6.5,7.5,11.7l-2.8,1.6c-2.7-5.6-3.6-7.2-7.3-11.8L42.8,339.9z M75.9,341.1c-2.9,6.2-4.3,8.5-8,13l-2.6-1.6
		c3.7-4.3,5.2-6.8,7.7-12.8L75.9,341.1z"/>
	<path d="M109.3,344.1c2.5-2.8,3.6-4.4,5.4-7.8l3.1,1.2c-1.9,2.8-3.7,5.1-5.2,6.6h9.8c2.2,0,3.5-0.1,4.8-0.3v3.3
		c-1.4-0.2-2.7-0.3-4.8-0.3H89.7c-2,0-3.3,0.1-4.8,0.3v-3.3c1.7,0.2,2.4,0.3,4.8,0.3h9.4c-1.5-2.5-2.6-3.9-5.1-6.7l2.9-1.2
		c3.4,4.1,3.7,4.5,5.6,7.8H109.3z M91.2,369.4v5.8c0,2.5,0.1,3.9,0.3,5.1H88c0.2-1.3,0.2-2.8,0.2-5.2v-20.2c0-2.4,0-3.2-0.1-4.3
		c1.6,0.1,2.7,0.2,4.7,0.2h7.5c2.6,0,3.4,0,4.4-0.2c-0.1,1.1-0.1,2.4-0.1,5.1v20.4c0,2.9-0.9,3.7-4.2,3.7c-0.9,0-2.1,0-3.8-0.2
		c-0.2-1.4-0.3-1.8-0.8-3c1.8,0.3,3,0.5,4.2,0.5c1.4,0,1.7-0.2,1.7-1.2v-6.4H91.2z M101.5,353.6H91.2v5.3h10.4V353.6z M101.5,361.5
		H91.2v5.2h10.4V361.5z M114,351.2c-0.2,1.2-0.2,1.9-0.2,4.5v9.7c0,3.6,0,4.3,0.2,5.4h-3.4c0.1-1.2,0.2-2,0.2-5.4v-9.8
		c0-2.4,0-3.2-0.2-4.5H114z M124.3,349.8c-0.2,1.2-0.3,2.5-0.3,5.2v20.8c0,3.5-1,4.2-5.1,4.2c-1.5,0-3.1-0.1-5.4-0.3
		c-0.2-1.2-0.4-2-0.9-3.2c2.6,0.4,4.5,0.6,6.2,0.6c1.9,0,2.2-0.2,2.2-1.4v-20.8c0-2.9,0-3.7-0.3-5.1H124.3z"/>
	<path d="M138.1,342.7h-0.9c-1.9,0-3.4,0.1-4.8,0.3v-3.2c1.3,0.2,2.7,0.3,4.8,0.3h2.1c0.5-1,0.7-1.8,1.2-3.7l3.4,0.7
		c-0.3,0.6-0.3,0.6-0.8,1.5c-0.4,0.7-0.6,1.2-0.8,1.5h7.4c4.1-0.1,4.1-0.1,4.9-0.3v3.2c-1.5-0.2-3-0.3-4.9-0.3h-8.8l-2.9,5.9h5.7
		c0-1.8-0.1-2.4-0.2-3.6h3.2c-0.1,1.3-0.2,2-0.2,3.6h3.4c1.8,0,3.9-0.1,5-0.3v3.2c-1.8-0.2-3.3-0.3-5-0.3h-3.4v4
		c1.1-0.1,1.9-0.1,2.4-0.2c2.8-0.2,3.1-0.3,5.6-0.6v2.6c-4.5,0.5-5.6,0.6-8,0.8c0,1.5,0.1,3,0.2,4.3h-3.2c0.1-1.5,0.2-2.3,0.2-4
		c-4.4,0.3-4.4,0.3-8.6,0.5c-0.9,0-1.4,0.1-2.1,0.3l-0.5-3.3c0.8,0.1,1.2,0.1,2,0.1c4,0,4.2,0,9.3-0.3v-4.3h-6.1
		c-1.2,0-2.6,0.1-3.5,0.3l-0.7-2.8c1.3-0.2,1.9-0.7,2.7-2.4h0L138.1,342.7z M138.5,380.5c0.2-1.2,0.3-2.7,0.3-4.9v-6.9
		c0-2.6,0-3.9-0.2-5.3c1.5,0.1,2.8,0.2,5.2,0.2h20.8c2.4,0,3.6,0,5.2-0.2c-0.1,1.5-0.2,2.5-0.2,5.3v6.9c0,2.4,0.1,3.6,0.3,4.9h-3.2
		v-2.3h-24.9v2.3H138.5z M141.8,369.6h24.9v-3.4h-24.9V369.6z M141.8,375.5h24.9v-3.4h-24.9V375.5z M160.3,350.2
		c-0.2,5.5-1.1,8.5-3.4,12.4c-0.9-0.9-2-1.6-2.9-2c2.8-3.7,3.5-6.5,3.5-14.9c0-3.1,0-4-0.2-5.7c0.6,0,1,0,1.3,0
		c4.2,0,11.1-1.7,13.9-3.4l2.1,2.5c-0.5,0.1-0.7,0.2-1.2,0.4c-4.6,1.6-7.7,2.4-13.1,3v2.5c0,1.2,0,1.6,0,2.6h11.4
		c1.9,0,2.9,0,4.1-0.2v3.1c-1.2-0.1-2.5-0.2-4-0.2h-1.7v7.9c0,1.6,0,2.8,0.2,4.1h-3.2c0.1-1.1,0.2-2.1,0.2-4v-8H160.3z"/>
	<path d="M181.6,345.2c0-1.9,0-2.7-0.1-4.6c1,0.1,2.4,0.1,4.4,0.1h5.2c2.1,0,3.3,0,4.4-0.1c-0.1,1.1-0.1,2.3-0.1,4.5v26.7
		c0,1.7,0,2.6,0.2,4.2h-3.1v-2.7h-7.7v4.5h-3.2c0.2-1.6,0.2-3.1,0.2-5.1V345.2z M184.6,355h7.7v-11.6h-7.7V355z M184.6,370.5h7.7
		v-12.8h-7.7V370.5z M217.4,375.4c0,3.2-1,3.9-5.3,3.9c-2,0-3.6-0.1-5.9-0.3c-0.1-1.3-0.4-2.1-0.9-3.3c2.9,0.4,4.3,0.6,6.6,0.6
		c2,0,2.4-0.2,2.4-1.2v-23.7h-12c-2,0-3.8,0.1-5.1,0.3v-3.4c1.2,0.2,3,0.3,5,0.3h12.1v-5.5c0-2.3-0.1-4.2-0.3-5.6h3.7
		c-0.2,1.6-0.3,3.3-0.3,5.6v5.5h1.5c2,0,3.4-0.1,4.6-0.3v3.3c-1.5-0.1-3-0.2-4.6-0.2h-1.6V375.4z M201.7,355.7
		c3.2,3.8,4.9,6.2,7.2,10.4l-2.6,1.9c-2.1-4.3-4-7.3-6.9-10.7L201.7,355.7z"/>
	<path d="M230.2,349.9c3.5,2,5.2,3.2,8.2,5.6l-1.8,2.7c-2.6-2.5-4.7-4-8.2-5.9L230.2,349.9z M238.4,365c-1.8,5.2-3.3,8.5-5.2,12
		c-0.7,1.4-1,1.8-1.2,2.2l-0.5,0.9l-2.9-2.4c0.7-0.8,1.3-1.5,2.2-3c2-3.4,3.4-6.6,4.9-11.5L238.4,365z M233.3,337.5
		c3.4,2.2,5.3,3.8,8.1,6.7l-1.9,2.6c-2.5-2.9-4.8-4.8-8.1-7.1L233.3,337.5z M266.8,359.2c-0.4,0.6-0.6,0.8-1.3,2.1
		c-2.3,3.7-4.3,6-8.2,9.6c3.6,2.6,8.8,5,14.6,6.6c-0.8,1-1.2,1.6-1.8,3c-6.5-2.1-11.1-4.4-15.2-7.7c-4.6,3.4-9.1,5.6-15.1,7.3
		c-0.5-1.3-0.8-1.8-1.7-2.9c5.9-1.5,10.2-3.4,14.5-6.4c-3-2.9-5.3-6.2-7.2-10.6h-0.2c-1.4,0-2.6,0-3.7,0.2v-3.2
		c1.2,0.2,2.6,0.3,4.2,0.3h15.1c1.9,0,3.1,0,4.2-0.2L266.8,359.2z M271.9,353.3c-2.8,0.3-4,0.4-5.6,0.4c-4.9,0-6.3-0.6-6.3-2.6v-9.2
		h-9c-0.1,4-0.7,6.6-2.3,9c-1.3,2-2.8,3.3-6,5.1c-0.7-1.2-1.2-1.6-2.2-2.3c5.8-2.9,7.4-5.7,7.4-12.6c0-0.9,0-1.3-0.1-2.2
		c0.9,0.1,1.6,0.1,3.5,0.1h8.3c1.9,0,2.6,0,3.5-0.1c-0.1,0.9-0.1,1.4-0.1,3.6v7.6c0,0.8,0.4,1,2.4,1c1.4,0,3.5-0.2,6.7-0.6
		L271.9,353.3z M248.4,360.2c1.8,3.9,3.2,5.7,6.6,8.8c3.4-2.8,5.2-5,7.5-8.8H248.4z"/>
	<path d="M282.2,346c-2.2,0-3.7,0.1-5.3,0.3v-3.5c1.5,0.2,3,0.3,5.3,0.3h9.6c1-2.2,1.5-4.1,1.8-6.1l3.5,0.4c-0.2,0.5-0.3,0.7-1,2.6
		c-0.3,0.8-0.7,1.8-1.2,3.1h19.2c2.2,0,3.7-0.1,5.2-0.3v3.5c-1.4-0.2-3.2-0.3-5.2-0.3h-20.5c-1,1.9-2.1,3.8-3.3,5.4h17.5
		c2.4,0,3.7,0,5.1-0.2c-0.1,1.4-0.2,3.1-0.2,5.6V376c0,1.5-0.4,2.5-1.3,3.1c-0.7,0.5-1.7,0.6-4,0.6c-1.5,0-2.9,0-5.3-0.2
		c-0.1-1.3-0.3-1.9-0.7-3.1c2.4,0.4,4,0.5,6.1,0.5c1.9,0,2.2-0.2,2.2-1.4v-5.9h-20.3v5.1c0,2.4,0,3.9,0.2,5.5h-3.6
		c0.2-1.7,0.3-3.4,0.3-5.5v-18.4c-2.7,3.1-4.9,5.1-8.8,8.1c-0.6-1.1-1-1.5-2.1-2.4c3.5-2.3,6.5-4.8,9.5-8.2c2.2-2.4,3.8-4.8,5.4-7.8
		H282.2z M309.8,359.2v-5.1h-20.3v5.1H309.8z M289.5,367.1h20.3v-5.2h-20.3V367.1z"/>
	<path d="M344.2,346.9c1.7,0,2.4,0,3.2-0.2v2.9c-0.9-0.1-1.6-0.2-3.3-0.2h-6.3v0.9c4.1,2,4.1,2,7.5,4.1l-1.6,2.4
		c-2.1-1.8-2.6-2.2-4.9-3.6c-0.4-0.2-0.6-0.3-1-0.5v2.9c0,0.7,0,1.4,0.2,2h-3.1c0.1-0.6,0.2-1.3,0.2-2V353c0-0.9,0-1.4,0.2-2.8
		c-2.4,4.2-4.3,6.1-9,9.5c-0.7-1-1.2-1.6-2.1-2.3c3.4-2,5.2-3.4,7.1-5.5c0.7-0.7,0.8-0.9,1.9-2.5h-4.4c-1.8,0-2.8,0-3.8,0.2v-3
		c1,0.2,2,0.2,3.9,0.2h6.2v-6.4c0-1.2,0-2.1-0.2-3.2h3.2c-0.2,1.1-0.2,1.9-0.2,3.2v6.4H344.2z M342.9,377.3c-2.1-1.5-2.8-2-4.6-3
		c-2.6,2.3-6.2,4.1-12.3,6c-0.4-1.1-0.8-1.7-1.5-2.6c4.8-1.2,8.3-2.7,11.1-4.8c-2.4-1.2-3.6-1.7-7.9-3.3c1.7-2.2,2.2-3,3.5-5.2h-2.9
		c-1.6,0-2.5,0-3.5,0.2v-3c0.9,0.2,1.7,0.2,3.5,0.2h4.2c0.5-1.1,0.9-1.9,1.4-3.8l2.9,0.7c-0.8,1.9-1,2.4-1.3,3.1h6.7
		c0.2,0,1.4,0,3.5-0.1c-1.5,4.8-2.7,7-5.4,10.4c2,1.1,2.4,1.2,4.3,2.4L342.9,377.3z M328.9,338.2c1.6,2.4,2.5,3.8,3.6,6.3l-2.6,1.1
		c-1-2.6-1.9-4.1-3.5-6.3L328.9,338.2z M334.2,364.5c-0.6,1.2-1.1,1.8-2.4,3.9c2.8,1.1,3.6,1.4,6,2.5c1.8-2,3.3-4.4,4.1-6.5H334.2z
		 M346.6,339.2c-1.6,3.2-2.5,4.7-4.2,6.9l-2.4-1.2c1.9-2.3,2.9-4.1,4-6.9L346.6,339.2z M368,349.4c-1.1-0.2-1.9-0.2-4.1-0.2
		c-0.5,8.2-2.1,13.8-5.4,19.1c2.7,3.8,6.1,6.7,10.7,9.1c-0.8,1-1.2,1.6-1.8,3c-4.4-2.5-7.8-5.6-10.7-9.5c-3.2,4-6.8,7-12.2,9.9
		c-0.6-1.2-1.2-1.9-2-2.7c5.7-2.7,9.5-5.8,12.4-9.8c-2.6-4.4-4-8.4-4.9-14.1c-1.2,2.4-1.9,3.5-3.5,5.6c-0.9-1-1.3-1.3-2.4-1.9
		c2.5-2.9,4.2-5.9,5.9-10.4c1.3-3.5,2.3-7.3,2.4-10.3l3.3,0.7c-0.2,0.7-0.2,0.7-0.9,3c-0.6,2.5-0.8,3-1.6,5.6h10.2
		c2.2,0,3.2,0,4.5-0.3V349.4z M352.4,349.2c-0.1,0.2-0.1,0.4-0.2,0.5c-0.1,0.3-0.2,0.4-0.2,0.5c0.8,4.6,0.8,4.6,1.4,7
		c1,3.4,2,5.8,3.4,8.3c1.3-2.4,2-4.2,2.7-6.9c0.9-3.1,1.2-5.1,1.4-9.5H352.4z"/>
	<path d="M378.5,342.1c0-2.2-0.1-3.5-0.3-4.8h3.6c-0.2,1.4-0.3,2.5-0.3,4.8v4.7h1.9c1.5,0,2.2,0,3.1-0.2v3.1c-0.9-0.1-1.7-0.2-3-0.2
		h-1.9v9.2c2.5-1.1,3-1.3,4.8-2.3v3c-1.9,1-1.9,1-4.8,2.3v15.2c0,2.6-1.2,3.4-5.1,3.4c-1,0-1.7,0-3-0.1c-0.1-1.2-0.2-1.8-0.6-3
		c1.6,0.2,2.8,0.3,4,0.3c1.4,0,1.8-0.3,1.8-1.4v-13.2c-1.1,0.5-2.5,1.1-2.8,1.2c-0.8,0.3-1.5,0.6-2.3,1l-0.9-3.3
		c1.6-0.2,2.1-0.4,6-1.9v-10.5h-2.2c-1.2,0-2.6,0.1-3.8,0.2v-3.2c1.2,0.2,2.3,0.3,3.8,0.3h2.2V342.1z M403.5,356.3h7.8
		c1.9,0,3.2-0.1,4.5-0.3v3.2c-1.3-0.2-2.4-0.3-4.6-0.3h-7.7v6h5.8c1.5,0,2.4,0,3.6-0.1c-0.1,1.3-0.2,2.5-0.2,4.6v6.4
		c0,1.9,0.1,3.2,0.3,4.7h-3.3v-2.3h-14.5v2.3h-3.2c0.1-1.2,0.2-2.7,0.2-4.4v-6.8c0-2.5,0-3.2-0.1-4.4c1.2,0.1,2.1,0.1,3.4,0.1h5.2
		v-6h-9.7c-0.6,9-2.3,14.9-6.1,20.5c-0.9-1-1.5-1.5-2.4-1.9c4.8-6.5,6-13.2,6-31.9c0-3.6,0-5.1-0.2-6.6c1.8,0.2,3,0.2,5,0.2h15.6
		c1.9,0,3.2,0,4.6-0.2c-0.1,1.2-0.1,2-0.1,3.5v4.8c0,1.4,0,2.6,0.1,3.6c-1.2-0.1-2.5-0.1-4.1-0.1h-5.9V356.3z M391.2,350.7
		c0,3.1-0.1,4.5-0.1,5.6h9.6v-5.6H391.2z M391.3,345c0,1.5,0,1.7,0,3.2h19.2v-6.3h-19.2V345z M395.1,375.5h14.5v-8.1h-14.5V375.5z"
		/>
</g>
</svg>
