<?xml version="1.0" encoding="utf-8"?>
<!-- Generator: Adobe Illustrator 15.0.0, SVG Export Plug-In . SVG Version: 6.00 Build 0)  -->
<!DOCTYPE svg PUBLIC "-//W3C//DTD SVG 1.1//EN" "http://www.w3.org/Graphics/SVG/1.1/DTD/svg11.dtd">
<svg version="1.1" id="Layer_1" xmlns="http://www.w3.org/2000/svg" xmlns:xlink="http://www.w3.org/1999/xlink" x="0px" y="0px"
	 width="64px" height="64px" viewBox="0 0 64 64" enable-background="new 0 0 64 64" xml:space="preserve">
<g>
	<g>
		<rect x="9.468" y="11.212" width="17.809" height="2.329"/>
	</g>
	<g>
		<rect x="9.468" y="18.641" width="17.809" height="2.328"/>
	</g>
	<g>
		<path d="M18.975,35.392c-2.271,0-4.119,1.849-4.119,4.12c0,2.271,1.848,4.119,4.119,4.119c2.27,0,4.12-1.849,4.12-4.119
			C23.095,37.24,21.245,35.392,18.975,35.392z M18.975,42.094c-1.426,0-2.58-1.155-2.58-2.582c0-1.426,1.154-2.581,2.58-2.581
			c1.426,0,2.582,1.155,2.582,2.581C21.557,40.938,20.401,42.094,18.975,42.094z"/>
	</g>
	<g>
		<path d="M59.469,13.905L33.753,3.874c-0.14-0.054-0.289-0.037-0.429,0.014c-0.041-0.008-0.078-0.025-0.126-0.025H4.752
			c-0.335,0-0.606,0.271-0.606,0.606v55.079c0,0.335,0.271,0.605,0.606,0.605h28.446c0.051,0,0.092-0.017,0.136-0.027
			c0.065,0.022,0.133,0.034,0.198,0.034c0.037,0,0.078-0.003,0.115-0.01l25.716-4.907c0.282-0.054,0.489-0.305,0.489-0.596V14.47
			C59.853,14.22,59.7,13.997,59.469,13.905z M18.975,45.765c-3.448,0-6.253-2.805-6.253-6.253c0-3.449,2.805-6.254,6.253-6.254
			c3.45,0,6.254,2.805,6.254,6.254C25.229,42.96,22.425,45.765,18.975,45.765z M29.225,22.229c0,0.335-0.271,0.605-0.605,0.605
			H8.388c-0.335,0-0.606-0.271-0.606-0.605v-4.645c0-0.333,0.271-0.604,0.606-0.604H28.62c0.335,0,0.605,0.271,0.605,0.604V22.229z
			 M29.225,15.304H7.782V9.45h21.443V15.304z M58.642,54.146l-24.504,4.677V5.322l24.504,9.562V54.146z"/>
	</g>
</g>
</svg>
