<?xml version="1.0" encoding="utf-8"?>
<!-- Generator: Adobe Illustrator 16.0.0, SVG Export Plug-In . SVG Version: 6.00 Build 0)  -->
<!DOCTYPE svg PUBLIC "-//W3C//DTD SVG 1.1//EN" "http://www.w3.org/Graphics/SVG/1.1/DTD/svg11.dtd">
<svg version="1.1" id="Layer_4" xmlns="http://www.w3.org/2000/svg" xmlns:xlink="http://www.w3.org/1999/xlink" x="0px" y="0px"
	 width="100px" height="100px" viewBox="0 0 100 100" enable-background="new 0 0 100 100" xml:space="preserve">
<path d="M17.031,63.063h17.881v5.332H17.031V63.063z M33.344,25.104c0.951,0,1.727-0.774,1.727-1.726s-0.775-1.725-1.727-1.725
	s-1.725,0.773-1.725,1.725S32.393,25.104,33.344,25.104z M44.539,25.104c0.951,0,1.725-0.774,1.725-1.726s-0.773-1.725-1.725-1.725
	s-1.725,0.773-1.725,1.725S43.588,25.104,44.539,25.104z M17.031,54.376h17.881v-5.333H17.031V54.376z M54.91,44.508H34.912v1.712
	H14.209v10.979h20.703v3.04H14.209v10.979h20.703V77.2H10.053V14.228H54.91V44.508z M39.99,23.379c0,2.509,2.041,4.549,4.549,4.549
	s4.549-2.04,4.549-4.549c0-2.508-2.041-4.548-4.549-4.548S39.99,20.871,39.99,23.379z M28.797,23.379
	c0,2.509,2.039,4.549,4.547,4.549c2.51,0,4.549-2.04,4.549-4.549c0-2.508-2.039-4.548-4.549-4.548
	C30.836,18.831,28.797,20.871,28.797,23.379z M51.225,32.006H14.209v10.979h37.016V32.006z M48.402,40.162H17.031v-5.333h31.371
	V40.162z M46.264,36.555h-4.293v1.489h4.293V36.555z M70.27,80.211v2.386c6.584,0.217,11.336,0.825,11.336,1.545
	c0,0.901-7.436,1.631-16.605,1.631c-9.172,0-16.605-0.729-16.605-1.631c0-0.646,3.834-1.202,9.385-1.466v-2.465H38.1V47.096h51.848
	v33.115H70.27z M86.541,77.373V49.651H41.504v27.722H86.541z"/>
</svg>
